<svg id="Component_18_1" data-name="Component 18 – 1" xmlns="http://www.w3.org/2000/svg" width="617" height="533" viewBox="0 0 617 533">
  <g id="Group_33" data-name="Group 33" transform="translate(-194 -1717)">
    <g id="Group_34" data-name="Group 34">
      <line id="Line_73" data-name="Line 73" y1="81" x2="64" transform="translate(223.5 2081.5)" fill="none" stroke="#000" stroke-width="1" stroke-dasharray="3"/>
      <line id="Line_74" data-name="Line 74" x2="121" y2="19" transform="translate(220.5 2187.5)" fill="none" stroke="#000" stroke-width="1" stroke-dasharray="3"/>
      <line id="Line_75" data-name="Line 75" y1="197" x2="22" transform="translate(208.5 1965.5)" fill="none" stroke="#000" stroke-width="1" stroke-dasharray="3"/>
      <line id="Line_76" data-name="Line 76" x1="6" y2="92" transform="translate(281.5 1782.5)" fill="none" stroke="#000" stroke-width="1" stroke-dasharray="3"/>
      <line id="Line_77" data-name="Line 77" y1="16" x2="131" transform="translate(305.5 1756.5)" fill="none" stroke="#000" stroke-width="1" stroke-dasharray="3"/>
      <line id="Line_78" data-name="Line 78" x1="102" transform="translate(512.5 1760.5)" fill="none" stroke="#000" stroke-width="1" stroke-dasharray="3"/>
      <line id="Line_79" data-name="Line 79" x2="98" y2="91" transform="translate(635.5 1772.5)" fill="none" stroke="#000" stroke-width="1" stroke-dasharray="3"/>
      <line id="Line_80" data-name="Line 80" y2="69" transform="translate(622.5 1772.5)" fill="none" stroke="#000" stroke-width="1" stroke-dasharray="3"/>
      <line id="Line_81" data-name="Line 81" x1="67" y2="56" transform="translate(547.5 1772.5)" fill="none" stroke="#000" stroke-width="1" stroke-dasharray="3"/>
      <line id="Line_82" data-name="Line 82" y1="128" x2="32" transform="translate(725.5 1933.5)" fill="none" stroke="#000" stroke-width="1" stroke-dasharray="3"/>
      <line id="Line_83" data-name="Line 83" x1="20" y1="76" transform="translate(720.5 2130.5)" fill="none" stroke="#000" stroke-width="1" stroke-dasharray="3"/>
      <line id="Line_84" data-name="Line 84" x1="96" y1="13" transform="translate(629.5 2211.5)" fill="none" stroke="#000" stroke-width="1" stroke-dasharray="3"/>
    </g>
    <g id="Group_32" data-name="Group 32">
      <line id="Line_50" data-name="Line 50" y2="93" transform="translate(469.5 1797.5)" fill="none" stroke="#1a2779" stroke-width="1" stroke-dasharray="3"/>
      <line id="Line_51" data-name="Line 51" x2="27" y2="28" transform="translate(495.5 1797.5)" fill="none" stroke="#1a2779" stroke-width="1" stroke-dasharray="3"/>
      <line id="Line_52" data-name="Line 52" x2="49" y2="18" transform="translate(555.5 1844.5)" fill="none" stroke="#1a2779" stroke-width="1" stroke-dasharray="3"/>
      <line id="Line_53" data-name="Line 53" y1="28" x2="4" transform="translate(518.5 1862.5)" fill="none" stroke="#1a2779" stroke-width="1" stroke-dasharray="3"/>
      <line id="Line_54" data-name="Line 54" y1="29" x2="49" transform="translate(555.5 1889.5)" fill="none" stroke="#1a2779" stroke-width="1" stroke-dasharray="3"/>
      <line id="Line_55" data-name="Line 55" x2="46" y2="7" transform="translate(657.5 1869.5)" fill="none" stroke="#000" stroke-width="1" stroke-dasharray="3"/>
      <line id="Line_56" data-name="Line 56" x1="82" y2="58" transform="translate(651.5 1939.5)" fill="none" stroke="#000" stroke-width="1" stroke-dasharray="3"/>
      <line id="Line_57" data-name="Line 57" x1="28" y1="6" transform="translate(586.5 2009.5)" fill="none" stroke="#1a2779" stroke-width="1" stroke-dasharray="3"/>
      <line id="Line_58" data-name="Line 58" x1="83" y1="49" transform="translate(581.5 2048.5)" fill="none" stroke="#1a2779" stroke-width="1" stroke-dasharray="3"/>
      <line id="Line_59" data-name="Line 59" x1="29" y1="35" transform="translate(651.5 2026.5)" fill="none" stroke="#000" stroke-width="1" stroke-dasharray="3"/>
      <line id="Line_60" data-name="Line 60" x1="54" y2="21" transform="translate(635.5 2137.5)" fill="none" stroke="#000" stroke-width="1" stroke-dasharray="3"/>
      <line id="Line_61" data-name="Line 61" x1="26" y1="25" transform="translate(492.5 2162.5)" fill="none" stroke="#000" stroke-width="1" stroke-dasharray="3"/>
      <line id="Line_62" data-name="Line 62" y1="17" x2="6" transform="translate(489.5 2105.5)" fill="none" stroke="#1a2779" stroke-width="1" stroke-dasharray="3"/>
      <line id="Line_63" data-name="Line 63" x1="28" y1="39" transform="translate(542.5 2085.5)" fill="none" stroke="#000" stroke-width="1" stroke-dasharray="3"/>
      <line id="Line_64" data-name="Line 64" y1="22" x2="66" transform="translate(403.5 2158.5)" fill="none" stroke="#000" stroke-width="1" stroke-dasharray="3"/>
      <line id="Line_65" data-name="Line 65" x1="29" y1="72" transform="translate(337.5 2090.5)" fill="none" stroke="#1a2779" stroke-width="1" stroke-dasharray="3"/>
      <line id="Line_66" data-name="Line 66" y1="1" x2="37" transform="translate(352.5 2039.5)" fill="none" stroke="#1a2779" stroke-width="1" stroke-dasharray="3"/>
      <line id="Line_67" data-name="Line 67" y1="75" x2="41" transform="translate(389.5 2090.5)" fill="none" stroke="#1a2779" stroke-width="1" stroke-dasharray="3"/>
      <line id="Line_68" data-name="Line 68" x1="18" y1="24" transform="translate(273.5 1988.5)" fill="none" stroke="#000" stroke-width="1" stroke-dasharray="3"/>
      <line id="Line_69" data-name="Line 69" x2="61" y2="21" transform="translate(320.5 1936.5)" fill="none" stroke="#1a2779" stroke-width="1" stroke-dasharray="3"/>
      <line id="Line_70" data-name="Line 70" y1="3" x2="59" transform="translate(297.5 1873.5)" fill="none" stroke="#1a2779" stroke-width="1" stroke-dasharray="3"/>
      <line id="Line_71" data-name="Line 71" x2="14" y2="18" transform="translate(389.5 1904.5)" fill="none" stroke="#1a2779" stroke-width="1" stroke-dasharray="3"/>
      <line id="Line_72" data-name="Line 72" y1="92" x2="37" transform="translate(393.5 1777.5)" fill="none" stroke="#1a2779" stroke-width="1" stroke-dasharray="3"/>
    </g>
    <g id="Group_314" data-name="Group 314" transform="translate(15 15)">
      <circle id="Ellipse_2" data-name="Ellipse 2" cx="94" cy="94" r="94" transform="translate(378 1891)" fill="#1a237e"/>
      <g id="Group_31" data-name="Group 31" transform="translate(415.855 1929.65)">
        <path id="Path_42" data-name="Path 42" d="M105.506,61.541,57.35,109.7a3.245,3.245,0,0,0,2.542,5.527,55.643,55.643,0,0,0,51.141-51.141,3.245,3.245,0,0,0-5.527-2.542" transform="translate(0.003 -4.187)" fill="#fff"/>
        <path id="Path_43" data-name="Path 43" d="M105.907,35.964l-.085-.181a9.558,9.558,0,0,0-15.4-2.763L28.828,94.611a9.556,9.556,0,0,0,2.764,15.4l.18.086a9.48,9.48,0,0,0,10.707-1.934l61.494-61.492a9.478,9.478,0,0,0,1.934-10.707" transform="translate(0.003 -4.19)" fill="#fff"/>
        <path id="Path_44" data-name="Path 44" d="M53.694,9.729A3.245,3.245,0,0,0,51.152,4.2,55.643,55.643,0,0,0,.011,55.343a3.245,3.245,0,0,0,5.527,2.542Z" transform="translate(0 -4.191)" fill="#fff"/>
        <path id="Path_45" data-name="Path 45" d="M14.143,65.686,7.074,72.755a9.54,9.54,0,0,0-1.881,10.82l.076.162a9.53,9.53,0,0,0,15.357,2.669l7.118-7.117a9.618,9.618,0,1,0-13.6-13.6" transform="translate(0.001 -4.188)" fill="#fff"/>
        <path id="Path_46" data-name="Path 46" d="M50.038,56.995,82.216,24.817A9.53,9.53,0,0,0,79.546,9.46l-.161-.076a9.54,9.54,0,0,0-10.82,1.881L36.436,43.393a9.618,9.618,0,1,0,13.6,13.6" transform="translate(0.002 -4.191)" fill="#ff9800"/>
      </g>
    </g>
    <circle id="Ellipse_3" data-name="Ellipse 3" cx="63" cy="63" r="63" transform="translate(194 1863)" fill="#4192df" opacity="0.995"/>
    <circle id="Ellipse_4" data-name="Ellipse 4" cx="44" cy="44" r="44" transform="translate(268 2009)" fill="#4192df" opacity="0.995"/>
    <circle id="Ellipse_6" data-name="Ellipse 6" cx="21.5" cy="21.5" r="21.5" transform="translate(356 1863)" fill="#8387a8"/>
    <circle id="Ellipse_7" data-name="Ellipse 7" cx="63" cy="63" r="63" transform="translate(518 2124)" fill="#4192df" opacity="0.995"/>
    <circle id="Ellipse_8" data-name="Ellipse 8" cx="28" cy="28" r="28" transform="translate(601 1841)" fill="#4192df" opacity="0.995"/>
    <circle id="Ellipse_9" data-name="Ellipse 9" cx="43" cy="43" r="43" transform="translate(426 1717)" fill="#4192df" opacity="0.995"/>
    <circle id="Ellipse_10" data-name="Ellipse 10" cx="21.5" cy="21.5" r="21.5" transform="translate(512 1819)" fill="#8387a8"/>
    <circle id="Ellipse_11" data-name="Ellipse 11" cx="21.5" cy="21.5" r="21.5" transform="translate(458 2122)" fill="#8387a8"/>
    <circle id="Ellipse_12" data-name="Ellipse 12" cx="21.5" cy="21.5" r="21.5" transform="translate(614 1988)" fill="#8387a8"/>
    <circle id="Ellipse_13" data-name="Ellipse 13" cx="44" cy="44" r="44" transform="translate(664 2053)" fill="#4192df" opacity="0.995"/>
    <circle id="Ellipse_14" data-name="Ellipse 14" cx="44" cy="44" r="44" transform="translate(329 2162)" fill="#4192df" opacity="0.995"/>
    <circle id="Ellipse_15" data-name="Ellipse 15" cx="54" cy="54" r="54" transform="translate(703 1836)" fill="#4192df" opacity="0.995"/>
    <circle id="Ellipse_16" data-name="Ellipse 16" cx="21.5" cy="21.5" r="21.5" transform="translate(274 1756)" fill="#8387a8"/>
    <circle id="Ellipse_17" data-name="Ellipse 17" cx="21.5" cy="21.5" r="21.5" transform="translate(601 1739)" fill="#4192df" opacity="0.995"/>
    <circle id="Ellipse_18" data-name="Ellipse 18" cx="21.5" cy="21.5" r="21.5" transform="translate(194 2153)" fill="#8387a8"/>
    <circle id="Ellipse_19" data-name="Ellipse 19" cx="21.5" cy="21.5" r="21.5" transform="translate(714 2196)" fill="#8387a8"/>
  </g>
  <path id="Icon_awesome-user-alt" data-name="Icon awesome-user-alt" d="M26.293,29.58A14.79,14.79,0,1,0,11.5,14.79,14.794,14.794,0,0,0,26.293,29.58Zm13.146,3.287H33.78a17.879,17.879,0,0,1-14.975,0H13.146A13.145,13.145,0,0,0,0,46.013v1.643a4.931,4.931,0,0,0,4.93,4.93H47.656a4.931,4.931,0,0,0,4.93-4.93V46.013A13.145,13.145,0,0,0,39.439,32.866Z" transform="translate(537 147)" fill="#fff"/>
  <path id="Icon_awesome-user-alt-2" data-name="Icon awesome-user-alt" d="M11.562,13.007a6.5,6.5,0,1,0-6.5-6.5A6.505,6.505,0,0,0,11.562,13.007Zm5.781,1.445H14.854a7.862,7.862,0,0,1-6.585,0H5.781A5.78,5.78,0,0,0,0,20.233v.723a2.168,2.168,0,0,0,2.168,2.168H20.955a2.168,2.168,0,0,0,2.168-2.168v-.723A5.78,5.78,0,0,0,17.342,14.452Z" transform="translate(423 140)" fill="#fff"/>
  <path id="Icon_awesome-user-alt-3" data-name="Icon awesome-user-alt" d="M8.727,9.817A4.909,4.909,0,1,0,3.818,4.909,4.91,4.91,0,0,0,8.727,9.817Zm4.363,1.091H11.212a5.934,5.934,0,0,1-4.97,0H4.363A4.363,4.363,0,0,0,0,15.271v.545a1.637,1.637,0,0,0,1.636,1.636H15.817a1.637,1.637,0,0,0,1.636-1.636v-.545A4.363,4.363,0,0,0,13.09,10.908Z" transform="translate(419.452 32.87)" fill="#fff"/>
  <path id="Icon_awesome-user-alt-4" data-name="Icon awesome-user-alt" d="M8.727,9.817A4.909,4.909,0,1,0,3.818,4.909,4.91,4.91,0,0,0,8.727,9.817Zm4.363,1.091H11.212a5.934,5.934,0,0,1-4.97,0H4.363A4.363,4.363,0,0,0,0,15.271v.545a1.637,1.637,0,0,0,1.636,1.636H15.817a1.637,1.637,0,0,0,1.636-1.636v-.545A4.363,4.363,0,0,0,13.09,10.908Z" transform="translate(331.452 113.87)" fill="#fff"/>
  <path id="Icon_awesome-user-alt-5" data-name="Icon awesome-user-alt" d="M20.207,22.732A11.366,11.366,0,1,0,8.84,11.366,11.369,11.369,0,0,0,20.207,22.732Zm10.1,2.526H25.961a13.74,13.74,0,0,1-11.508,0H10.1A10.1,10.1,0,0,0,0,35.361v1.263a3.79,3.79,0,0,0,3.789,3.789H36.624a3.79,3.79,0,0,0,3.789-3.789V35.361A10.1,10.1,0,0,0,30.31,25.258Z" transform="translate(254.393 18.811)" fill="#fff"/>
  <path id="Icon_awesome-user-alt-6" data-name="Icon awesome-user-alt" d="M8.727,9.817A4.909,4.909,0,1,0,3.818,4.909,4.91,4.91,0,0,0,8.727,9.817Zm4.363,1.091H11.212a5.934,5.934,0,0,1-4.97,0H4.363A4.363,4.363,0,0,0,0,15.271v.545a1.637,1.637,0,0,0,1.636,1.636H15.817a1.637,1.637,0,0,0,1.636-1.636v-.545A4.363,4.363,0,0,0,13.09,10.908Z" transform="translate(433 284)" fill="#fff"/>
  <path id="Icon_awesome-user-alt-7" data-name="Icon awesome-user-alt" d="M16.3,18.338A9.169,9.169,0,1,0,7.132,9.169,9.172,9.172,0,0,0,16.3,18.338Zm8.15,2.038H20.943a11.084,11.084,0,0,1-9.284,0H8.15A8.15,8.15,0,0,0,0,28.526v1.019A3.057,3.057,0,0,0,3.056,32.6H29.545A3.057,3.057,0,0,0,32.6,29.545V28.526A8.15,8.15,0,0,0,24.451,20.376Z" transform="translate(497.426 362.426)" fill="#fff"/>
  <path id="Icon_awesome-user-alt-8" data-name="Icon awesome-user-alt" d="M30.929,34.795a17.4,17.4,0,1,0-17.4-17.4A17.4,17.4,0,0,0,30.929,34.795Zm15.464,3.866H39.736a21.031,21.031,0,0,1-17.615,0H15.464A15.463,15.463,0,0,0,0,54.125v1.933a5.8,5.8,0,0,0,5.8,5.8H56.058a5.8,5.8,0,0,0,5.8-5.8V54.125A15.463,15.463,0,0,0,46.393,38.661Z" transform="translate(355.798 436.798)" fill="#fff"/>
  <path id="Icon_awesome-user-alt-9" data-name="Icon awesome-user-alt" d="M7.325,8.241A4.12,4.12,0,1,0,3.2,4.12,4.121,4.121,0,0,0,7.325,8.241Zm3.663.916H9.411a4.981,4.981,0,0,1-4.172,0H3.663A3.662,3.662,0,0,0,0,12.819v.458A1.374,1.374,0,0,0,1.373,14.65h11.9a1.374,1.374,0,0,0,1.373-1.373v-.458A3.662,3.662,0,0,0,10.988,9.156Z" transform="translate(534.401 491.33)" fill="#fff"/>
  <path id="Icon_awesome-user-alt-10" data-name="Icon awesome-user-alt" d="M7.325,8.241A4.12,4.12,0,1,0,3.2,4.12,4.121,4.121,0,0,0,7.325,8.241Zm3.663.916H9.411a4.981,4.981,0,0,1-4.172,0H3.663A3.662,3.662,0,0,0,0,12.819v.458A1.374,1.374,0,0,0,1.373,14.65h11.9a1.374,1.374,0,0,0,1.373-1.373v-.458A3.662,3.662,0,0,0,10.988,9.156Z" transform="translate(278.401 417.33)" fill="#fff"/>
  <path id="Icon_awesome-user-alt-11" data-name="Icon awesome-user-alt" d="M18.952,21.321A10.661,10.661,0,1,0,8.292,10.661,10.663,10.663,0,0,0,18.952,21.321Zm9.476,2.369H24.349a12.887,12.887,0,0,1-10.794,0H9.476A9.475,9.475,0,0,0,0,33.166v1.185A3.554,3.554,0,0,0,3.554,37.9h30.8A3.554,3.554,0,0,0,37.9,34.351V33.166A9.475,9.475,0,0,0,28.428,23.69Z" transform="translate(159.751 467.727)" fill="#fff"/>
  <path id="Icon_awesome-user-alt-12" data-name="Icon awesome-user-alt" d="M26.293,29.58A14.79,14.79,0,1,0,11.5,14.79,14.794,14.794,0,0,0,26.293,29.58Zm13.146,3.287H33.78a17.879,17.879,0,0,1-14.975,0H13.146A13.145,13.145,0,0,0,0,46.013v1.643a4.931,4.931,0,0,0,4.93,4.93H47.656a4.931,4.931,0,0,0,4.93-4.93V46.013A13.145,13.145,0,0,0,39.439,32.866Z" transform="translate(35 177)" fill="#fff"/>
  <path id="Icon_awesome-user-alt-13" data-name="Icon awesome-user-alt" d="M8.727,9.817A4.909,4.909,0,1,0,3.818,4.909,4.91,4.91,0,0,0,8.727,9.817Zm4.363,1.091H11.212a5.934,5.934,0,0,1-4.97,0H4.363A4.363,4.363,0,0,0,0,15.271v.545a1.637,1.637,0,0,0,1.636,1.636H15.817a1.637,1.637,0,0,0,1.636-1.636v-.545A4.363,4.363,0,0,0,13.09,10.908Z" transform="translate(174.452 157.84)" fill="#fff"/>
  <path id="Icon_awesome-user-alt-14" data-name="Icon awesome-user-alt" d="M16.3,18.338A9.169,9.169,0,1,0,7.132,9.169,9.172,9.172,0,0,0,16.3,18.338Zm8.15,2.038H20.943a11.084,11.084,0,0,1-9.284,0H8.15A8.15,8.15,0,0,0,0,28.526v1.019A3.057,3.057,0,0,0,3.056,32.6H29.545A3.057,3.057,0,0,0,32.6,29.545V28.526A8.15,8.15,0,0,0,24.451,20.376Z" transform="translate(102.426 318.426)" fill="#fff"/>
  <path id="Icon_awesome-user-alt-15" data-name="Icon awesome-user-alt" d="M7.325,8.241A4.12,4.12,0,1,0,3.2,4.12,4.121,4.121,0,0,0,7.325,8.241Zm3.663.916H9.411a4.981,4.981,0,0,1-4.172,0H3.663A3.662,3.662,0,0,0,0,12.819v.458A1.374,1.374,0,0,0,1.373,14.65h11.9a1.374,1.374,0,0,0,1.373-1.373v-.458A3.662,3.662,0,0,0,10.988,9.156Z" transform="translate(14.401 448.33)" fill="#fff"/>
  <path id="Icon_awesome-user-alt-16" data-name="Icon awesome-user-alt" d="M8.727,9.817A4.909,4.909,0,1,0,3.818,4.909,4.91,4.91,0,0,0,8.727,9.817Zm4.363,1.091H11.212a5.934,5.934,0,0,1-4.97,0H4.363A4.363,4.363,0,0,0,0,15.271v.545a1.637,1.637,0,0,0,1.636,1.636H15.817a1.637,1.637,0,0,0,1.636-1.636v-.545A4.363,4.363,0,0,0,13.09,10.908Z" transform="translate(93.699 50.498)" fill="#fff"/>
</svg>
