<svg xmlns="http://www.w3.org/2000/svg" width="163.812" height="158.955" viewBox="0 0 163.812 158.955">
  <path id="download-icon-kubernetes-1324440186569978041_0" d="M69.646,95.874l.048.068-6.819,16.47A35.3,35.3,0,0,1,48.712,94.686l17.6-2.983.027.034a3,3,0,0,1,3.3,4.136ZM63.96,81.342a3,3,0,0,0,1.181-5.16l.014-.075L51.77,64.134a35.1,35.1,0,0,0-4.983,22.217L63.947,81.4l.014-.061Zm7.815-13.515a3,3,0,0,0,4.771-2.3l.068-.034L77.639,47.61a35.111,35.111,0,0,0-20.545,9.843l14.655,10.4.027-.014ZM76.963,86.6,81.9,88.98l4.928-2.368,1.229-5.324-3.413-4.252H79.154l-3.413,4.252L76.963,86.6ZM87.2,65.472a3,3,0,0,0,4.778,2.293l.055.02L106.6,57.459a35.411,35.411,0,0,0-20.422-9.843l1.01,17.849.014.007Zm74.235,40.749-39.4,49.015a10.921,10.921,0,0,1-8.518,4.054l-63.212.02a10.921,10.921,0,0,1-8.512-4.068L2.366,106.235a10.8,10.8,0,0,1-2.1-9.146L14.331,35.965a10.792,10.792,0,0,1,5.891-7.324L77.161,1.427a10.962,10.962,0,0,1,9.453,0l56.96,27.2a10.807,10.807,0,0,1,5.891,7.324l14.074,61.123a10.746,10.746,0,0,1-2.1,9.146Zm-22.449-14.04c-.287-.068-.7-.177-.99-.232a27.452,27.452,0,0,0-3.269-.259,31.88,31.88,0,0,1-6.109-1.01,3.789,3.789,0,0,1-1.474-1.474l-1.372-.4a44.3,44.3,0,0,0-7.105-30.681c.355-.321,1.024-.908,1.208-1.085a2.665,2.665,0,0,1,.642-1.925,31.483,31.483,0,0,1,5.071-3.563,28.962,28.962,0,0,0,2.833-1.652c.218-.164.519-.423.751-.607a3.426,3.426,0,1,0-4.246-5.331c-.232.184-.546.423-.758.6a29.224,29.224,0,0,0-2.252,2.389,32.251,32.251,0,0,1-4.594,4.157,3.807,3.807,0,0,1-2.068.225l-1.3.921a44.674,44.674,0,0,0-28.3-13.672l-.082-1.522a2.691,2.691,0,0,1-1.113-1.706,31.715,31.715,0,0,1,.389-6.177,29.405,29.405,0,0,0,.464-3.242c.007-.273-.007-.676-.007-.969a3.428,3.428,0,1,0-6.819,0l.007.1c0,.28-.014.628,0,.874a27.881,27.881,0,0,0,.457,3.242,31.7,31.7,0,0,1,.382,6.184,3.72,3.72,0,0,1-1.106,1.761l-.082,1.44A43.848,43.848,0,0,0,49.715,52.231q-.62-.429-1.229-.874a2.679,2.679,0,0,1-2.027-.2,31.76,31.76,0,0,1-4.594-4.15,27.989,27.989,0,0,0-2.246-2.382c-.2-.177-.526-.423-.758-.6a4.054,4.054,0,0,0-2.375-.9,3.283,3.283,0,0,0-2.717,1.2,3.616,3.616,0,0,0,.84,5.03l.048.034.71.567a27.564,27.564,0,0,0,2.826,1.652,32.365,32.365,0,0,1,5.071,3.563,3.826,3.826,0,0,1,.683,1.966l1.092.976a44.107,44.107,0,0,0-6.962,30.756l-1.42.41a4.611,4.611,0,0,1-1.468,1.481,32.01,32.01,0,0,1-6.109,1,29.253,29.253,0,0,0-3.276.266c-.253.048-.614.137-.908.2l-.027.014-.048.014A3.421,3.421,0,1,0,26.337,98.9l.048-.007.068-.02.881-.2A29.334,29.334,0,0,0,30.392,97.5a32.338,32.338,0,0,1,5.938-1.747,3.789,3.789,0,0,1,1.966.689l1.481-.253a44.366,44.366,0,0,0,19.658,24.545l-.614,1.488a3.314,3.314,0,0,1,.3,1.925,33.277,33.277,0,0,1-3.085,5.549,28.658,28.658,0,0,0-1.829,2.723c-.137.253-.307.648-.437.915a3.426,3.426,0,1,0,6.164,2.921v-.014c.137-.266.314-.614.423-.867a29.849,29.849,0,0,0,.983-3.126c.9-2.266,1.4-4.641,2.642-6.123a2.736,2.736,0,0,1,1.468-.717l.771-1.4a44.046,44.046,0,0,0,31.459.082l.724,1.311a2.7,2.7,0,0,1,1.747,1.058,31.435,31.435,0,0,1,2.334,5.734,28.746,28.746,0,0,0,.99,3.119c.109.253.294.614.423.881a3.426,3.426,0,1,0,6.164-2.921c-.137-.266-.307-.655-.444-.915a30.385,30.385,0,0,0-1.829-2.717,31.355,31.355,0,0,1-3.024-5.413,2.7,2.7,0,0,1,.259-2.007,13.155,13.155,0,0,1-.567-1.379,44.36,44.36,0,0,0,19.658-24.722c.437.068,1.2.2,1.454.259a2.7,2.7,0,0,1,1.911-.71,32.337,32.337,0,0,1,5.938,1.747,26.1,26.1,0,0,0,3.058,1.181c.246.068.6.13.887.191l.061.02.048.007a3.421,3.421,0,1,0,1.515-6.641Zm-27.05-28.04L98.628,76.059v.034a3,3,0,0,0,1.181,5.167l.02.068L117.07,86.3a35.711,35.711,0,0,0-5.133-22.163ZM84.546,100.488a3,3,0,0,0-5.3.007h-.014l-8.655,15.644a35.248,35.248,0,0,0,22.7.02l-8.669-15.672h-.068Zm12.887-8.826a3.007,3.007,0,0,0-3.3,4.15l-.02.027L101,112.48a35.152,35.152,0,0,0,14.2-17.849l-17.747-3Z" transform="translate(0 -0.356)" fill="#8fbbd7" opacity="0.1"/>
</svg>
