<svg xmlns="http://www.w3.org/2000/svg" xmlns:xlink="http://www.w3.org/1999/xlink" width="1127.52" height="784.523" viewBox="0 0 1127.52 784.523">
  <defs>
    <clipPath id="clip-path">
      <rect width="439" height="105" fill="none"/>
    </clipPath>
  </defs>
  <g id="Group_331" data-name="Group 331" transform="translate(-910.515 -53)">
    <path id="Path_476" data-name="Path 476" d="M10139,931.6s-21.82-167.532,47.6-200.722,135.673-67.757,221.275-307.336,685.449-262.965,770.566-249.882,52.708,757.94,52.708,757.94Z" transform="translate(-9199.171 -117.798)" fill="#4192df"/>
    <path id="Path_491" data-name="Path 491" d="M262.968,605.936c-3.63,10.821-12.4,19.284-22.414,24.828q-.791.442-1.583.853c-.438.234-.886.457-1.334.671-3.613.81-7.258,1.5-10.881,2.271-.01,0-.02.01-.03.01q-8.111,2.288-15.3,4.458c-2.693.8-5.3,1.594-7.79,2.375-.329.093-.648.2-.978.3-.429.134-.848.267-1.267.391-.01-.02-.02-.03-.02-.05s-.01-.01,0-.02c-1.926-4.3-3.792-8.619-5.579-13a321.264,321.264,0,0,1-16.725-52.122c-4.831-21.761-6.756-43.945-4.181-66.088a146.039,146.039,0,0,1,12.364-44.015q1.385-2.982,2.9-5.894c.3-.613.62-1.215.955-1.818v-.01c.03-.06.069-.121.108-.191l.148-.271v-.01q1.315-2.441,2.74-4.813a126.226,126.226,0,0,1,16.626-22.129A103.311,103.311,0,0,1,249.4,405.4h.01c.708-.276,1.426-.532,2.144-.788-.274.772-.547,1.535-.811,2.307a206.668,206.668,0,0,0-8.255,31.85c-.143.831-.286,1.672-.419,2.514a213.611,213.611,0,0,0,1.825,78.647c.011.07.031.14.042.21q1.827,8.6,4.392,17c.041.16.083.309.134.469.329,1.087.678,2.174,1.027,3.252q1.524,4.712,3.288,9.353C259.624,568.272,269.116,587.634,262.968,605.936Z" transform="translate(736.778 195.433)" fill="#2877c3"/>
    <path id="Path_496" data-name="Path 496" d="M385.026,485.095c-.686.446-1.353.9-2.039,1.357a.01.01,0,0,1,0,.007.01.01,0,0,1-.007,0,202.626,202.626,0,0,0-25.741,20.445l-.01.01c-.635.575-1.26,1.161-1.876,1.746a214.126,214.126,0,0,0-45.8,63.744l-.088.181A208.16,208.16,0,0,0,298.337,602.1c-1.5,5.123-2.893,10.455-4.459,15.718q-8.011,1.747-15.581,3.51-9.612,2.225-18.513,4.464-3.862.947-7.584,1.913a74.241,74.241,0,0,1-14.562,4.581c-3.613.81-7.258,1.5-10.881,2.271-.01,0-.02.01-.03.01q-8.111,2.288-15.3,4.458c-2.693.8-5.3,1.594-7.79,2.375-.329.093-.648.2-.978.3.618-2.6,1.247-5.211,1.915-7.806,0-.02,0-.02.01-.03,5.955-23.39,13.913-46.487,25.127-67.642.335-.643.669-1.3,1.044-1.929A198.438,198.438,0,0,1,246.168,540c.692-.956,1.414-1.9,2.146-2.848l.01-.01q4.6-5.919,9.715-11.471c.595-.655,1.209-1.31,1.824-1.955.3-.313.6-.625.912-.938,1.15-1.19,2.33-2.369,3.531-3.51,1.885-1.816,3.83-3.582,5.816-5.3a146,146,0,0,1,25.952-17.847c.06-.03.129-.071.189-.1,26.751-14.363,57.8-20.022,86.556-11.6C383.562,484.647,384.284,484.861,385.026,485.095Z" transform="translate(736.778 195.433)" fill="#2877c3"/>
    <g id="Group_326" data-name="Group 326" transform="translate(120.073 694.234) rotate(-30)">
      <path id="Path_541" data-name="Path 541" d="M531.162,529.789c-16.059,11.672-15.509,35.963-26.867,52.246A40.654,40.654,0,0,1,491.1,594a41.8,41.8,0,0,1-4.413,2.18q-8.349.648-16.392,1.378c-2.053.18-4.1.369-6.115.567q-2.513.23-4.981.477c-.009-.6-.009-1.216.009-1.819a69.39,69.39,0,0,1,16.716-43.708c.5-.576,1-1.135,1.513-1.693a67.553,67.553,0,0,1,18.445-13.924,68.769,68.769,0,0,1,35.278-7.664Z" transform="translate(579.508 147.816)" fill="#2877c3"/>
      <path id="Path_542" data-name="Path 542" d="M468.084,594.938l-1.261,3.738-.639,1.891q-2.513.23-4.981.477l-.288.027c-1.828.189-3.639.369-5.44.558q-.716-.824-1.4-1.675a68.036,68.036,0,0,1,8.853-95.54c-2.017,10.547,2.035,20.454,6.62,30.451,3.125,6.773,6.494,13.582,8.385,20.652a46.126,46.126,0,0,1,1.126,5.386A41.245,41.245,0,0,1,468.084,594.938Z" transform="translate(577.505 145.37)" fill="#2877c3"/>
    </g>
    <g id="Group_327" data-name="Group 327" transform="translate(545.809 69)">
      <path id="Path_541-2" data-name="Path 541" d="M531.162,529.789c-16.059,11.672-15.509,35.963-26.867,52.246A40.654,40.654,0,0,1,491.1,594a41.8,41.8,0,0,1-4.413,2.18q-8.349.648-16.392,1.378c-2.053.18-4.1.369-6.115.567q-2.513.23-4.981.477c-.009-.6-.009-1.216.009-1.819a69.39,69.39,0,0,1,16.716-43.708c.5-.576,1-1.135,1.513-1.693a67.553,67.553,0,0,1,18.445-13.924,68.769,68.769,0,0,1,35.278-7.664Z" transform="translate(579.508 147.816)" fill="#2877c3"/>
      <path id="Path_542-2" data-name="Path 542" d="M468.084,594.938l-1.261,3.738-.639,1.891q-2.513.23-4.981.477l-.288.027c-1.828.189-3.639.369-5.44.558q-.716-.824-1.4-1.675a68.036,68.036,0,0,1,8.853-95.54c-2.017,10.547,2.035,20.454,6.62,30.451,3.125,6.773,6.494,13.582,8.385,20.652a46.126,46.126,0,0,1,1.126,5.386A41.245,41.245,0,0,1,468.084,594.938Z" transform="translate(577.505 145.37)" fill="#2877c3"/>
    </g>
    <g id="Group_330" data-name="Group 330" transform="translate(5589.447 -9203.231)">
      <rect id="Rectangle_766" data-name="Rectangle 766" width="170.168" height="121.548" transform="translate(-4191.92 9895.683)" fill="#d6d6d6"/>
      <rect id="Rectangle_767" data-name="Rectangle 767" width="190.639" height="15.353" transform="translate(-4202.155 10001.877)" fill="#d6d6d6"/>
      <path id="Path_394" data-name="Path 394" d="M825.434,426.059H107.019V17.761A17.781,17.781,0,0,1,124.779,0H807.673a17.782,17.782,0,0,1,17.761,17.761Z" transform="translate(-4574.66 9410.769)" fill="#ededed"/>
      <rect id="Rectangle_768" data-name="Rectangle 768" width="684.509" height="385.116" transform="translate(-4451.01 9429.32)" fill="#fff"/>
      <path id="Path_393" data-name="Path 393" d="M800.192,412.695H132.9a25.911,25.911,0,0,1-25.882-25.882V306.5H826.074v80.313a25.911,25.911,0,0,1-25.882,25.882" transform="translate(-4574.661 9496.422)" fill="#ededed"/>
      <path id="Path_395" data-name="Path 395" d="M390.136,3.5a5.118,5.118,0,1,1-5.118,5.118A5.118,5.118,0,0,1,390.136,3.5" transform="translate(-4496.972 9411.747)" fill="#fff"/>
      <path id="Path_422" data-name="Path 422" d="M364.008,98.921h2.2v1.038a3.517,3.517,0,0,1,2.767-1.212c2.386,0,3.909,2.006,3.909,4.481,0,2.506-1.557,4.513-3.943,4.513a3.357,3.357,0,0,1-2.611-1.158v3.478h-2.317Zm6.5,4.323a2.167,2.167,0,0,0-2.144-2.352,2.362,2.362,0,1,0,2.144,2.352" transform="translate(-4502.843 9347.894)" fill="#1a237e"/>
      <path id="Path_423" data-name="Path 423" d="M371.915,103.244c0-2.491,1.521-4.5,3.909-4.5a3.379,3.379,0,0,1,2.7,1.228V98.921h2.266v8.648h-2.266v-1.038a3.34,3.34,0,0,1-2.7,1.209c-2.387,0-3.909-2.006-3.909-4.5m6.555,0a2.153,2.153,0,0,0-2.059-2.352,2.362,2.362,0,0,0,0,4.7,2.134,2.134,0,0,0,2.059-2.352" transform="translate(-4500.633 9347.894)" fill="#1a237e"/>
      <path id="Path_424" data-name="Path 424" d="M380.228,98.921h2.283v1.661a3.006,3.006,0,0,1,3.027-1.833v2.524c-2.006,0-2.993.917-2.993,2.975v3.321h-2.317Z" transform="translate(-4498.31 9347.894)" fill="#1a237e"/>
      <path id="Path_425" data-name="Path 425" d="M385.013,106.565l.83-1.781a4.189,4.189,0,0,0,2.7.916c.536,0,1.418-.207,1.418-.727s-.743-.64-1.488-.847c-1.712-.449-3.113-1.021-3.113-2.68,0-1.764,1.73-2.7,3.356-2.7a5.894,5.894,0,0,1,3.217.865l-.778,1.73a5.422,5.422,0,0,0-2.4-.605c-.536,0-1.038.242-1.038.605,0,.484.725.64,1.521.812,1.47.345,3.078.985,3.078,2.75,0,2.128-2.161,2.837-3.769,2.837a5.259,5.259,0,0,1-3.529-1.176" transform="translate(-4496.973 9347.894)" fill="#1a237e"/>
      <path id="Path_426" data-name="Path 426" d="M391.6,103.244a4.439,4.439,0,0,1,4.478-4.5,4.323,4.323,0,0,1,4.2,4.461,7.759,7.759,0,0,1-.051.83h-6.278a2.287,2.287,0,0,0,2.4,1.764,4.29,4.29,0,0,0,2.335-.674l.864,1.659a5.823,5.823,0,0,1-3.217.952,4.449,4.449,0,0,1-4.738-4.5m6.5-.743a2.088,2.088,0,0,0-2.092-1.816,2.166,2.166,0,0,0-2.093,1.816Z" transform="translate(-4495.133 9347.894)" fill="#1a237e"/>
      <path id="Path_427" data-name="Path 427" d="M399.368,103.244c0-2.491,1.523-4.5,3.909-4.5a3.379,3.379,0,0,1,2.7,1.228V98.921h2.266v8.648h-2.266v-1.038a3.34,3.34,0,0,1-2.7,1.209c-2.386,0-3.909-2.006-3.909-4.5m6.555,0a2.153,2.153,0,0,0-2.059-2.352,2.362,2.362,0,0,0,0,4.7,2.134,2.134,0,0,0,2.059-2.352" transform="translate(-4492.961 9347.894)" fill="#1a237e"/>
      <path id="Path_428" data-name="Path 428" d="M409.878,107.09v1.038h-2.2V96.747H410v3.7a3.4,3.4,0,0,1,2.613-1.144c2.386,0,3.942,2.006,3.942,4.5s-1.521,4.5-3.907,4.5a3.478,3.478,0,0,1-2.767-1.209M414.2,103.8a2.187,2.187,0,0,0-2.144-2.352,2.372,2.372,0,0,0,0,4.7A2.177,2.177,0,0,0,414.2,103.8" transform="translate(-4490.639 9347.335)" fill="#1a237e"/>
      <rect id="Rectangle_770" data-name="Rectangle 770" width="2.317" height="11.38" transform="translate(-4072.58 9444.082)" fill="#1a237e"/>
      <path id="Path_429" data-name="Path 429" d="M418.778,103.244a4.44,4.44,0,0,1,4.479-4.5,4.323,4.323,0,0,1,4.2,4.461,7.759,7.759,0,0,1-.051.83h-6.278a2.287,2.287,0,0,0,2.4,1.764,4.294,4.294,0,0,0,2.335-.674l.864,1.659a5.826,5.826,0,0,1-3.216.952,4.45,4.45,0,0,1-4.739-4.5m6.5-.743a2.088,2.088,0,0,0-2.093-1.816A2.166,2.166,0,0,0,421.1,102.5Z" transform="translate(-4487.538 9347.894)" fill="#1a237e"/>
      <path id="Path_430" data-name="Path 430" d="M361.806,102.416l-5.65,5.65a.381.381,0,0,0,.3.649,6.528,6.528,0,0,0,6-6,.381.381,0,0,0-.649-.3" transform="translate(-4505.069 9348.888)" fill="#1a237e"/>
      <path id="Path_431" data-name="Path 431" d="M362.63,100.192l-.01-.022a1.122,1.122,0,0,0-1.807-.324l-7.226,7.226a1.121,1.121,0,0,0,.325,1.807l.021.01a1.113,1.113,0,0,0,1.256-.226l7.215-7.215a1.113,1.113,0,0,0,.226-1.256" transform="translate(-4505.847 9348.11)" fill="#1a237e"/>
      <path id="Path_432" data-name="Path 432" d="M357.172,97.781a.38.38,0,0,0-.3-.647,6.528,6.528,0,0,0-6,6,.381.381,0,0,0,.649.3Z" transform="translate(-4506.514 9347.442)" fill="#1a237e"/>
      <path id="Path_433" data-name="Path 433" d="M352.422,102.843l-.829.829a1.121,1.121,0,0,0-.221,1.269l.009.019a1.119,1.119,0,0,0,1.8.313l.834-.835a1.128,1.128,0,1,0-1.6-1.6" transform="translate(-4506.404 9348.946)" fill="#1a237e"/>
      <path id="Path_434" data-name="Path 434" d="M355.882,103.217l3.776-3.776a1.118,1.118,0,0,0-.313-1.8l-.019-.009a1.121,1.121,0,0,0-1.269.221l-3.769,3.769a1.128,1.128,0,0,0,1.6,1.6" transform="translate(-4505.653 9347.552)" fill="#ff9800"/>
      <path id="Path_444" data-name="Path 444" d="M661.6,403.047a8.836,8.836,0,0,1-6.906,4.758c-.747.079-.525,1.223.216,1.145a9.9,9.9,0,0,0,7.654-5.248.6.6,0,0,0-.154-.809A.586.586,0,0,0,661.6,403.047Z" transform="translate(-4421.738 9523.332)" fill="#fff"/>
      <rect id="Rectangle_806" data-name="Rectangle 806" width="178" height="307" transform="translate(-4431 9479)" fill="#f0f0f0"/>
      <rect id="Rectangle_807" data-name="Rectangle 807" width="218" height="132" transform="translate(-4238 9479)" fill="#f4f4f4"/>
      <rect id="Rectangle_808" data-name="Rectangle 808" width="219" height="132" transform="translate(-4006 9479)" fill="#f4f4f4"/>
      <rect id="Rectangle_809" data-name="Rectangle 809" width="451" height="164" transform="translate(-4238 9622)" fill="#f4f4f4"/>
      <circle id="Ellipse_29" data-name="Ellipse 29" cx="71" cy="71" r="71" transform="translate(-4413 9505)" fill="#fff"/>
      <path id="Path_546" data-name="Path 546" d="M66,0a66,66,0,0,1,0,132Z" transform="translate(-4319 9485.264) rotate(60)" fill="#e6c343"/>
      <path id="Path_547" data-name="Path 547" d="M66,0a66,66,0,0,1,0,132Z" transform="translate(-4366 9665.736) rotate(-120)" fill="#c76765"/>
      <path id="Path_545" data-name="Path 545" d="M66,0a66,66,0,0,1,0,132Z" transform="translate(-4408 9510)" fill="#4192df"/>
      <rect id="Rectangle_810" data-name="Rectangle 810" width="42.615" height="16.321" rx="5" transform="translate(-4413 9669.742)" fill="rgba(26,35,126,0.1)"/>
      <rect id="Rectangle_811" data-name="Rectangle 811" width="19.041" height="16.321" rx="5" transform="translate(-4363 9669.742)" fill="rgba(26,35,126,0.1)"/>
      <rect id="Rectangle_812" data-name="Rectangle 812" width="71.458" height="16.321" rx="5" transform="translate(-4338 9669.742)" fill="rgba(26,35,126,0.1)"/>
      <rect id="Rectangle_813" data-name="Rectangle 813" width="19.041" height="16.321" rx="5" transform="translate(-4413 9690.742)" fill="rgba(26,35,126,0.1)"/>
      <rect id="Rectangle_814" data-name="Rectangle 814" width="60.749" height="16.321" rx="5" transform="translate(-4387 9690.742)" fill="rgba(26,35,126,0.1)"/>
      <rect id="Rectangle_815" data-name="Rectangle 815" width="52.749" height="16.321" rx="5" transform="translate(-4319.292 9690.742)" fill="rgba(26,35,126,0.1)"/>
      <rect id="Rectangle_816" data-name="Rectangle 816" width="71.458" height="16.321" rx="5" transform="translate(-4338 9711.742)" fill="rgba(26,35,126,0.1)"/>
      <rect id="Rectangle_817" data-name="Rectangle 817" width="60.749" height="16.321" rx="5" transform="translate(-4412.27 9732.742)" fill="rgba(26,35,126,0.1)"/>
      <rect id="Rectangle_818" data-name="Rectangle 818" width="52.749" height="16.321" rx="5" transform="translate(-4319.292 9732.742)" fill="rgba(26,35,126,0.1)"/>
      <rect id="Rectangle_819" data-name="Rectangle 819" width="19.041" height="16.321" rx="5" transform="translate(-4361.041 9711.742)" fill="rgba(26,35,126,0.1)"/>
      <rect id="Rectangle_820" data-name="Rectangle 820" width="47.959" height="16.321" rx="5" transform="translate(-4413 9711.742)" fill="rgba(26,35,126,0.1)"/>
      <rect id="Rectangle_821" data-name="Rectangle 821" width="19.041" height="16.321" rx="5" transform="translate(-4345.292 9732.742)" fill="rgba(26,35,126,0.1)"/>
      <g id="Repeat_Grid_9" data-name="Repeat Grid 9" transform="translate(-4230 9670)" clip-path="url(#clip-path)">
        <g id="Group_329" data-name="Group 329" transform="translate(4685 -9554)">
          <rect id="Rectangle_822" data-name="Rectangle 822" width="13" height="68" transform="translate(-4685 9591)" fill="#4192df"/>
          <rect id="Rectangle_823" data-name="Rectangle 823" width="13" height="105" transform="translate(-4662 9554)" fill="#4192df"/>
          <rect id="Rectangle_824" data-name="Rectangle 824" width="13" height="92" transform="translate(-4639 9567)" fill="#4192df"/>
          <rect id="Rectangle_825" data-name="Rectangle 825" width="13" height="78" transform="translate(-4615 9581)" fill="#4192df"/>
          <rect id="Rectangle_826" data-name="Rectangle 826" width="13" height="88" transform="translate(-4596 9571)" fill="#4192df"/>
        </g>
        <g id="Group_329-2" data-name="Group 329" transform="translate(4796 -9554)">
          <rect id="Rectangle_822-2" data-name="Rectangle 822" width="13" height="68" transform="translate(-4685 9591)" fill="#4192df"/>
          <rect id="Rectangle_823-2" data-name="Rectangle 823" width="13" height="105" transform="translate(-4662 9554)" fill="#4192df"/>
          <rect id="Rectangle_824-2" data-name="Rectangle 824" width="13" height="92" transform="translate(-4639 9567)" fill="#4192df"/>
          <rect id="Rectangle_825-2" data-name="Rectangle 825" width="13" height="78" transform="translate(-4615 9581)" fill="#4192df"/>
          <rect id="Rectangle_826-2" data-name="Rectangle 826" width="13" height="88" transform="translate(-4596 9571)" fill="#4192df"/>
        </g>
        <g id="Group_329-3" data-name="Group 329" transform="translate(4907 -9554)">
          <rect id="Rectangle_822-3" data-name="Rectangle 822" width="13" height="68" transform="translate(-4685 9591)" fill="#4192df"/>
          <rect id="Rectangle_823-3" data-name="Rectangle 823" width="13" height="105" transform="translate(-4662 9554)" fill="#4192df"/>
          <rect id="Rectangle_824-3" data-name="Rectangle 824" width="13" height="92" transform="translate(-4639 9567)" fill="#4192df"/>
          <rect id="Rectangle_825-3" data-name="Rectangle 825" width="13" height="78" transform="translate(-4615 9581)" fill="#4192df"/>
          <rect id="Rectangle_826-3" data-name="Rectangle 826" width="13" height="88" transform="translate(-4596 9571)" fill="#4192df"/>
        </g>
        <g id="Group_329-4" data-name="Group 329" transform="translate(5018 -9554)">
          <rect id="Rectangle_822-4" data-name="Rectangle 822" width="13" height="68" transform="translate(-4685 9591)" fill="#4192df"/>
          <rect id="Rectangle_823-4" data-name="Rectangle 823" width="13" height="105" transform="translate(-4662 9554)" fill="#4192df"/>
          <rect id="Rectangle_824-4" data-name="Rectangle 824" width="13" height="92" transform="translate(-4639 9567)" fill="#4192df"/>
          <rect id="Rectangle_825-4" data-name="Rectangle 825" width="13" height="78" transform="translate(-4615 9581)" fill="#4192df"/>
          <rect id="Rectangle_826-4" data-name="Rectangle 826" width="13" height="88" transform="translate(-4596 9571)" fill="#4192df"/>
        </g>
      </g>
      <path id="Path_548" data-name="Path 548" d="M-4230,9564.349l44.579-36.945,40.1,19.843,53.634-43.339,33.379,33.531,35.088,9.808" transform="translate(-3 27.536)" fill="none" stroke="#e6c343" stroke-linecap="round" stroke-width="3"/>
      <rect id="Rectangle_827" data-name="Rectangle 827" width="56.717" height="16.321" rx="5" transform="translate(-3996 9505)" fill="rgba(26,35,126,0.1)"/>
      <rect id="Rectangle_828" data-name="Rectangle 828" width="25.342" height="16.321" rx="5" transform="translate(-3929.455 9505)" fill="rgba(26,35,126,0.1)"/>
      <rect id="Rectangle_829" data-name="Rectangle 829" width="95.104" height="16.321" rx="5" transform="translate(-3896.182 9505)" fill="rgba(26,35,126,0.1)"/>
      <rect id="Rectangle_830" data-name="Rectangle 830" width="25.342" height="16.321" rx="5" transform="translate(-3996 9526)" fill="rgba(26,35,126,0.1)"/>
      <rect id="Rectangle_831" data-name="Rectangle 831" width="80.852" height="16.321" rx="5" transform="translate(-3961.396 9526)" fill="rgba(26,35,126,0.1)"/>
      <rect id="Rectangle_832" data-name="Rectangle 832" width="70.205" height="16.321" rx="5" transform="translate(-3871.283 9526)" fill="rgba(26,35,126,0.1)"/>
      <rect id="Rectangle_833" data-name="Rectangle 833" width="56.717" height="16.321" rx="5" transform="translate(-3996 9552)" fill="rgba(26,35,126,0.1)"/>
      <rect id="Rectangle_834" data-name="Rectangle 834" width="25.342" height="16.321" rx="5" transform="translate(-3929.455 9552)" fill="rgba(26,35,126,0.1)"/>
      <rect id="Rectangle_835" data-name="Rectangle 835" width="95.104" height="16.321" rx="5" transform="translate(-3896.182 9552)" fill="rgba(26,35,126,0.1)"/>
      <rect id="Rectangle_836" data-name="Rectangle 836" width="25.342" height="16.321" rx="5" transform="translate(-3996 9573)" fill="rgba(26,35,126,0.1)"/>
      <rect id="Rectangle_837" data-name="Rectangle 837" width="80.852" height="16.321" rx="5" transform="translate(-3961.396 9573)" fill="rgba(26,35,126,0.1)"/>
      <rect id="Rectangle_838" data-name="Rectangle 838" width="70.205" height="16.321" rx="5" transform="translate(-3871.283 9573)" fill="rgba(26,35,126,0.1)"/>
      <path id="Path_549" data-name="Path 549" d="M-4230,9582.835l44.579-48.245h38.624l55.112-30.683,33.379,43.787,35.088,12.808" transform="translate(-3 9.05)" fill="none" stroke="#337bbc" stroke-linecap="round" stroke-width="3"/>
      <path id="Path_550" data-name="Path 550" d="M-4230,9594.307l44.579-55.258,40.1,29.678,53.634-64.818,33.379,50.15,35.088,14.668" transform="translate(-3 -2.422)" fill="none" stroke="#e47d54" stroke-linecap="round" stroke-width="3"/>
    </g>
  </g>
</svg>
