<svg width="1073" height="722" viewBox="0 0 1073 722" fill="none" xmlns="http://www.w3.org/2000/svg">
<g clip-path="url(#clip0_203_367)">
<path d="M29.314 722.802C29.314 722.802 7.49365 555.27 76.9136 522.08C146.334 488.89 212.587 454.323 298.189 214.744C383.791 -24.835 983.638 -48.221 1068.76 -35.138C1153.87 -22.055 1121.46 722.802 1121.46 722.802H29.314Z" fill="#4192DF"/>
<path d="M89.231 710.369C85.601 721.19 76.831 729.653 66.817 735.197C66.2897 735.492 65.762 735.776 65.234 736.05C64.796 736.284 64.348 736.507 63.9 736.721C60.287 737.531 56.642 738.221 53.019 738.992C53.009 738.992 52.999 739.002 52.989 739.002C47.5817 740.527 42.4817 742.013 37.689 743.46C34.996 744.26 32.389 745.054 29.899 745.835C29.57 745.928 29.251 746.035 28.921 746.135C28.492 746.269 28.073 746.402 27.654 746.526C27.644 746.506 27.634 746.496 27.634 746.476C27.634 746.456 27.624 746.466 27.634 746.456C25.708 742.156 23.842 737.837 22.055 733.456C15.0073 716.589 9.41201 699.152 5.33002 681.334C0.49902 659.573 -1.42598 637.389 1.14902 615.246C2.93402 600.016 7.10646 585.162 13.513 571.231C14.4364 569.243 15.403 567.278 16.413 565.337C16.713 564.724 17.033 564.122 17.368 563.519V563.509C17.398 563.449 17.437 563.388 17.476 563.318L17.624 563.047V563.037C18.5007 561.41 19.414 559.805 20.364 558.224C25.0781 550.26 30.6536 542.839 36.99 536.095C47.7051 524.501 60.9348 515.517 75.663 509.833H75.673C76.381 509.557 77.099 509.301 77.817 509.045C77.543 509.817 77.27 510.58 77.006 511.352C73.4123 521.732 70.6519 532.383 68.751 543.202C68.608 544.033 68.465 544.874 68.332 545.716C64.0662 571.818 64.685 598.486 70.157 624.363C70.168 624.433 70.188 624.503 70.199 624.573C71.417 630.306 72.881 635.973 74.591 641.573C74.632 641.733 74.674 641.882 74.725 642.042C75.054 643.129 75.403 644.216 75.752 645.294C76.768 648.435 77.864 651.553 79.04 654.647C85.887 672.705 95.379 692.067 89.231 710.369Z" fill="#2877C3"/>
<path d="M211.289 589.528C210.603 589.974 209.936 590.428 209.25 590.885C209.251 590.887 209.251 590.89 209.25 590.892C209.248 590.893 209.245 590.893 209.243 590.892C200.123 596.999 191.514 603.836 183.502 611.337L183.492 611.347C182.857 611.922 182.232 612.508 181.616 613.093C162.552 631.338 147.024 652.949 135.816 676.837L135.728 677.018C131.277 686.561 127.557 696.428 124.6 706.533C123.1 711.656 121.707 716.988 120.141 722.251C114.8 723.416 109.607 724.586 104.56 725.761C98.1519 727.245 91.9809 728.733 86.0469 730.225C83.4722 730.857 80.9442 731.494 78.4629 732.138C73.7792 734.162 68.8994 735.697 63.9009 736.719C60.2879 737.529 56.6429 738.219 53.0199 738.99C53.0099 738.99 52.9999 739 52.9899 739C47.5826 740.526 42.4825 742.012 37.6899 743.458C34.9969 744.258 32.3899 745.052 29.8999 745.833C29.5709 745.926 29.2519 746.033 28.9219 746.133C29.5399 743.533 30.1689 740.922 30.8369 738.327C30.8369 738.307 30.8369 738.307 30.8469 738.297C36.8019 714.907 44.7599 691.81 55.9739 670.655C56.3089 670.012 56.6429 669.355 57.0179 668.726C61.561 660.266 66.7122 652.147 72.4309 644.433C73.1229 643.477 73.8449 642.533 74.5769 641.585L74.5869 641.575C77.6536 637.629 80.8919 633.806 84.3019 630.104C84.8969 629.449 85.5109 628.794 86.1259 628.149C86.4259 627.836 86.7259 627.524 87.0379 627.211C88.1879 626.021 89.3679 624.842 90.5689 623.701C92.4539 621.885 94.3989 620.119 96.3849 618.401C104.367 611.534 113.068 605.55 122.337 600.554C122.397 600.524 122.466 600.483 122.526 600.454C149.277 586.091 180.326 580.432 209.082 588.854C209.825 589.08 210.547 589.294 211.289 589.528Z" fill="#2877C3"/>
<path d="M510.229 634.722C502.157 652.86 514.779 673.621 513.084 693.402C512.545 699.388 510.686 705.18 507.64 710.361C506.81 711.779 505.898 713.146 504.908 714.456C500.304 717.613 495.801 720.743 491.401 723.845C489.713 725.028 488.035 726.215 486.389 727.394C485.015 728.364 483.656 729.332 482.314 730.297C482.006 729.782 481.698 729.249 481.412 728.718C473.676 714.633 471.069 698.3 474.034 682.507C474.179 681.758 474.333 681.024 474.498 680.285C476.257 672.726 479.306 665.527 483.51 659.004C490.096 648.676 499.32 640.296 510.23 634.727L510.229 634.722Z" fill="#2877C3"/>
<path d="M485.219 721.565L485.996 725.433L486.388 727.39C485.014 728.36 483.655 729.328 482.313 730.293L482.077 730.461C480.588 731.539 479.11 732.6 477.645 733.664C476.956 733.427 476.273 733.177 475.595 732.913C458.749 726.631 445.076 713.936 437.561 697.603C430.047 681.27 429.303 662.627 435.491 645.747C439.018 655.889 447.481 662.443 456.45 668.808C462.543 673.111 468.865 677.324 474.038 682.501C475.341 683.794 476.566 685.163 477.706 686.602C481.502 691.493 484.148 697.175 485.449 703.227C486.749 709.28 486.671 715.547 485.219 721.565V721.565Z" fill="#2877C3"/>
<path d="M745.964 655.605C729.905 667.277 730.455 691.568 719.097 707.851C715.637 712.766 711.131 716.852 705.902 719.816C704.475 720.629 703.001 721.357 701.489 721.996C695.923 722.428 690.459 722.888 685.097 723.374C683.044 723.554 680.997 723.743 678.982 723.941C677.306 724.095 675.646 724.254 674.001 724.418C673.992 723.818 673.992 723.202 674.01 722.599C674.353 706.534 680.261 691.086 690.726 678.891C691.226 678.315 691.726 677.756 692.239 677.198C697.542 671.532 703.781 666.822 710.684 663.274C721.551 657.624 733.73 654.978 745.962 655.61L745.964 655.605Z" fill="#2877C3"/>
<path d="M680.883 718.308L679.622 722.046L678.983 723.937C677.307 724.091 675.647 724.25 674.002 724.414L673.714 724.441C671.886 724.63 670.075 724.81 668.274 724.999C667.797 724.45 667.33 723.891 666.874 723.324C655.427 709.461 649.932 691.63 651.591 673.728C653.25 655.826 661.927 639.308 675.727 627.784C673.71 638.331 677.762 648.238 682.347 658.235C685.472 665.008 688.841 671.817 690.732 678.887C691.214 680.659 691.59 682.457 691.858 684.273C692.7 690.406 692.151 696.65 690.251 702.542C688.351 708.434 685.149 713.822 680.883 718.308V718.308Z" fill="#2877C3"/>
<path d="M657.18 601.451H487.012V722.999H657.18V601.451Z" fill="#D6D6D6"/>
<path d="M667.416 707.646H476.777V722.999H667.416V707.646Z" fill="#D6D6D6"/>
<path d="M929.706 542.596H211.291V134.298C211.296 129.589 213.169 125.075 216.498 121.745C219.828 118.416 224.342 116.543 229.051 116.537H911.945C916.653 116.543 921.168 118.416 924.497 121.745C927.827 125.075 929.7 129.589 929.706 134.298V542.596Z" fill="#EDEDED"/>
<path d="M912.431 135.089H227.922V520.205H912.431V135.089Z" fill="white"/>
<path d="M904.463 614.885H237.171C230.309 614.878 223.73 612.148 218.878 607.296C214.026 602.444 211.296 595.865 211.289 589.003V508.69H930.345V589.003C930.337 595.865 927.608 602.444 922.755 607.296C917.903 612.148 911.325 614.878 904.463 614.885" fill="#EDEDED"/>
<path d="M572.096 121.016C573.108 121.016 574.097 121.316 574.939 121.878C575.781 122.441 576.437 123.24 576.824 124.175C577.211 125.11 577.313 126.139 577.115 127.132C576.918 128.125 576.43 129.037 575.715 129.753C574.999 130.468 574.087 130.956 573.094 131.153C572.101 131.351 571.072 131.249 570.137 130.862C569.202 130.475 568.402 129.819 567.84 128.977C567.278 128.135 566.978 127.146 566.978 126.134C566.978 124.776 567.517 123.474 568.477 122.515C569.436 121.555 570.738 121.016 572.096 121.016" fill="white"/>
<path d="M540.097 152.584H542.297V153.622C542.639 153.227 543.065 152.913 543.543 152.704C544.022 152.494 544.541 152.394 545.064 152.41C547.45 152.41 548.973 154.416 548.973 156.891C548.973 159.397 547.416 161.404 545.03 161.404C544.536 161.415 544.046 161.317 543.595 161.116C543.144 160.916 542.742 160.619 542.419 160.246V163.724H540.102L540.097 152.584ZM546.597 156.907C546.622 156.609 546.586 156.309 546.49 156.026C546.394 155.743 546.24 155.483 546.039 155.262C545.838 155.041 545.593 154.864 545.32 154.743C545.047 154.621 544.752 154.557 544.453 154.555C543.978 154.511 543.502 154.611 543.085 154.843C542.669 155.075 542.333 155.427 542.12 155.854C541.908 156.28 541.83 156.761 541.895 157.233C541.961 157.705 542.168 158.146 542.489 158.498C542.81 158.85 543.23 159.097 543.694 159.206C544.158 159.315 544.644 159.281 545.088 159.109C545.532 158.937 545.914 158.635 546.183 158.242C546.453 157.849 546.597 157.383 546.597 156.907" fill="#1A237E"/>
<path d="M550.214 156.907C550.214 154.416 551.735 152.407 554.123 152.407C554.637 152.392 555.147 152.496 555.615 152.708C556.083 152.921 556.496 153.238 556.823 153.635V152.584H559.089V161.232H556.823V160.194C556.496 160.589 556.082 160.904 555.614 161.113C555.146 161.323 554.636 161.422 554.123 161.403C551.736 161.403 550.214 159.397 550.214 156.903M556.769 156.903C556.796 156.611 556.764 156.318 556.674 156.039C556.584 155.761 556.438 155.504 556.245 155.284C556.052 155.064 555.817 154.885 555.553 154.759C555.289 154.633 555.002 154.562 554.71 154.551C554.128 154.609 553.588 154.882 553.195 155.317C552.803 155.751 552.586 156.315 552.586 156.901C552.586 157.486 552.803 158.05 553.195 158.484C553.588 158.919 554.128 159.192 554.71 159.251C555.003 159.242 555.291 159.173 555.557 159.048C555.822 158.922 556.059 158.744 556.252 158.523C556.445 158.302 556.591 158.044 556.68 157.765C556.769 157.485 556.799 157.19 556.769 156.899" fill="#1A237E"/>
<path d="M560.85 152.583H563.133V154.244C563.378 153.658 563.804 153.164 564.348 152.835C564.892 152.506 565.526 152.357 566.16 152.411V154.935C564.154 154.935 563.167 155.852 563.167 157.91V161.231H560.85V152.583Z" fill="#1A237E"/>
<path d="M566.972 160.228L567.802 158.447C568.567 159.059 569.522 159.383 570.502 159.363C571.038 159.363 571.92 159.156 571.92 158.636C571.92 158.116 571.177 157.996 570.432 157.789C568.72 157.34 567.319 156.768 567.319 155.109C567.319 153.345 569.049 152.409 570.675 152.409C571.808 152.382 572.925 152.682 573.892 153.274L573.114 155.004C572.371 154.62 571.55 154.413 570.714 154.399C570.178 154.399 569.676 154.641 569.676 155.004C569.676 155.488 570.401 155.644 571.197 155.816C572.667 156.161 574.275 156.801 574.275 158.566C574.275 160.694 572.114 161.403 570.506 161.403C569.225 161.454 567.97 161.036 566.977 160.227" fill="#1A237E"/>
<path d="M575.399 156.906C575.39 156.315 575.5 155.728 575.722 155.18C575.944 154.632 576.273 154.133 576.691 153.714C577.108 153.295 577.604 152.963 578.152 152.739C578.699 152.514 579.285 152.401 579.877 152.406C580.446 152.422 581.006 152.55 581.525 152.784C582.045 153.017 582.513 153.35 582.903 153.764C583.294 154.179 583.598 154.666 583.799 155.199C584.001 155.731 584.095 156.298 584.077 156.867C584.074 157.145 584.057 157.422 584.026 157.697H577.748C577.871 158.23 578.181 158.7 578.621 159.024C579.061 159.347 579.603 159.503 580.148 159.461C580.975 159.467 581.785 159.232 582.483 158.787L583.347 160.446C582.391 161.072 581.272 161.404 580.13 161.398C579.517 161.438 578.903 161.351 578.326 161.142C577.749 160.933 577.221 160.607 576.776 160.185C576.331 159.762 575.979 159.252 575.74 158.686C575.502 158.121 575.383 157.512 575.392 156.898M581.892 156.155C581.825 155.649 581.576 155.185 581.19 154.851C580.805 154.516 580.31 154.334 579.8 154.339C579.293 154.35 578.807 154.537 578.425 154.869C578.042 155.201 577.788 155.656 577.707 156.155H581.892Z" fill="#1A237E"/>
<path d="M585.339 156.907C585.339 154.416 586.862 152.407 589.248 152.407C589.761 152.392 590.272 152.496 590.74 152.708C591.207 152.921 591.621 153.238 591.948 153.635V152.584H594.214V161.232H591.948V160.194C591.621 160.589 591.207 160.904 590.739 161.113C590.271 161.323 589.76 161.422 589.248 161.403C586.862 161.403 585.339 159.397 585.339 156.903M591.894 156.903C591.921 156.611 591.888 156.318 591.798 156.039C591.708 155.761 591.563 155.504 591.37 155.284C591.177 155.064 590.942 154.885 590.678 154.759C590.414 154.633 590.127 154.562 589.835 154.551C589.252 154.609 588.713 154.882 588.32 155.317C587.928 155.751 587.71 156.315 587.71 156.901C587.71 157.486 587.928 158.05 588.32 158.484C588.713 158.919 589.252 159.192 589.835 159.251C590.128 159.242 590.416 159.173 590.681 159.048C590.947 158.922 591.183 158.744 591.377 158.523C591.57 158.302 591.715 158.044 591.804 157.765C591.893 157.485 591.924 157.19 591.894 156.899" fill="#1A237E"/>
<path d="M598.171 160.194V161.232H595.971V149.851H598.293V153.551C598.619 153.182 599.022 152.889 599.473 152.691C599.925 152.494 600.413 152.397 600.906 152.407C603.292 152.407 604.848 154.413 604.848 156.907C604.848 159.401 603.327 161.407 600.941 161.407C600.418 161.426 599.898 161.327 599.419 161.118C598.94 160.909 598.514 160.594 598.174 160.198M602.493 156.904C602.515 156.606 602.477 156.308 602.38 156.026C602.283 155.744 602.129 155.485 601.928 155.265C601.727 155.045 601.484 154.868 601.212 154.745C600.941 154.622 600.647 154.557 600.349 154.552C599.781 154.629 599.26 154.91 598.883 155.342C598.507 155.774 598.299 156.328 598.299 156.902C598.299 157.475 598.507 158.029 598.883 158.461C599.26 158.893 599.781 159.174 600.349 159.252C600.647 159.248 600.941 159.183 601.213 159.061C601.485 158.939 601.729 158.763 601.93 158.543C602.131 158.323 602.285 158.063 602.382 157.782C602.478 157.5 602.516 157.201 602.493 156.904" fill="#1A237E"/>
<path d="M608.669 149.851H606.352V161.231H608.669V149.851Z" fill="#1A237E"/>
<path d="M610.172 156.906C610.164 156.315 610.274 155.728 610.496 155.18C610.718 154.632 611.047 154.133 611.464 153.714C611.882 153.295 612.378 152.963 612.926 152.739C613.473 152.514 614.059 152.401 614.651 152.406C615.22 152.422 615.78 152.55 616.299 152.784C616.819 153.017 617.287 153.35 617.677 153.764C618.068 154.179 618.372 154.666 618.574 155.199C618.775 155.731 618.869 156.298 618.851 156.867C618.849 157.145 618.832 157.422 618.8 157.697H612.522C612.645 158.23 612.955 158.7 613.395 159.024C613.835 159.347 614.377 159.503 614.922 159.461C615.749 159.466 616.559 159.232 617.257 158.787L618.121 160.446C617.165 161.072 616.047 161.403 614.905 161.398C614.292 161.438 613.678 161.351 613.101 161.142C612.524 160.933 611.996 160.607 611.551 160.185C611.106 159.762 610.753 159.252 610.515 158.686C610.276 158.121 610.157 157.512 610.166 156.898M616.666 156.155C616.599 155.649 616.35 155.185 615.964 154.85C615.578 154.516 615.083 154.334 614.573 154.339C614.068 154.353 613.584 154.543 613.204 154.876C612.825 155.209 612.573 155.664 612.494 156.162L616.666 156.155Z" fill="#1A237E"/>
<path d="M535.669 157.072L530.019 162.722C529.964 162.778 529.927 162.848 529.913 162.925C529.899 163.002 529.91 163.081 529.942 163.151C529.975 163.222 530.029 163.281 530.096 163.321C530.163 163.36 530.241 163.378 530.319 163.371C531.87 163.25 533.326 162.579 534.426 161.479C535.526 160.379 536.198 158.922 536.319 157.371C536.325 157.294 536.307 157.216 536.268 157.149C536.228 157.081 536.169 157.028 536.099 156.995C536.028 156.962 535.949 156.952 535.872 156.966C535.795 156.979 535.725 157.016 535.67 157.071" fill="#1A237E"/>
<path d="M535.714 154.07L535.704 154.048C535.629 153.885 535.514 153.742 535.372 153.633C535.229 153.523 535.062 153.449 534.885 153.417C534.708 153.385 534.526 153.397 534.354 153.45C534.182 153.504 534.025 153.598 533.897 153.724L526.671 160.95C526.545 161.078 526.45 161.235 526.397 161.407C526.343 161.579 526.332 161.761 526.364 161.938C526.396 162.116 526.47 162.283 526.58 162.425C526.69 162.568 526.833 162.682 526.996 162.757L527.017 162.767C527.225 162.863 527.456 162.893 527.681 162.852C527.906 162.812 528.113 162.703 528.273 162.541L535.488 155.326C535.65 155.165 535.759 154.959 535.799 154.734C535.84 154.509 535.81 154.278 535.714 154.07" fill="#1A237E"/>
<path d="M529.59 150.992C529.645 150.937 529.681 150.866 529.695 150.79C529.708 150.713 529.698 150.634 529.665 150.564C529.633 150.493 529.579 150.435 529.512 150.395C529.445 150.356 529.367 150.339 529.29 150.345C527.739 150.466 526.282 151.137 525.182 152.237C524.082 153.337 523.411 154.794 523.29 156.345C523.284 156.423 523.301 156.5 523.341 156.568C523.38 156.635 523.439 156.689 523.51 156.721C523.58 156.754 523.66 156.764 523.736 156.751C523.813 156.737 523.884 156.7 523.939 156.645L529.59 150.992Z" fill="#1A237E"/>
<path d="M524.95 157.557L524.121 158.386C523.958 158.549 523.849 158.759 523.81 158.986C523.77 159.213 523.801 159.446 523.9 159.655L523.909 159.674C523.985 159.836 524.1 159.977 524.242 160.085C524.385 160.193 524.551 160.266 524.728 160.296C524.904 160.327 525.085 160.315 525.256 160.261C525.426 160.207 525.582 160.113 525.709 159.987L526.543 159.152C526.648 159.047 526.731 158.922 526.788 158.785C526.845 158.648 526.874 158.501 526.874 158.352C526.874 158.203 526.845 158.056 526.788 157.919C526.731 157.782 526.648 157.657 526.543 157.552C526.438 157.447 526.313 157.364 526.175 157.307C526.038 157.25 525.891 157.221 525.743 157.221C525.594 157.221 525.447 157.25 525.31 157.307C525.172 157.364 525.048 157.447 524.943 157.552" fill="#1A237E"/>
<path d="M529.161 156.537L532.937 152.761C533.063 152.635 533.157 152.479 533.211 152.309C533.265 152.138 533.277 151.957 533.247 151.78C533.216 151.604 533.143 151.437 533.035 151.295C532.927 151.152 532.786 151.038 532.624 150.961L532.605 150.952C532.396 150.854 532.162 150.823 531.935 150.862C531.708 150.902 531.499 151.01 531.336 151.173L527.567 154.942C527.355 155.154 527.235 155.442 527.235 155.742C527.235 156.042 527.355 156.33 527.567 156.542C527.779 156.754 528.067 156.874 528.367 156.874C528.667 156.874 528.955 156.754 529.167 156.542" fill="#FF9800"/>
<path d="M918.794 632.147C918.127 633.45 917.147 634.567 915.941 635.398C914.736 636.228 913.343 636.746 911.888 636.905C911.141 636.984 911.363 638.128 912.104 638.05C913.711 637.868 915.249 637.294 916.584 636.379C917.918 635.464 919.008 634.236 919.758 632.802C919.84 632.673 919.87 632.518 919.841 632.367C919.813 632.217 919.728 632.083 919.604 631.993C919.476 631.907 919.319 631.875 919.167 631.904C919.015 631.933 918.881 632.02 918.794 632.147Z" fill="white"/>
<path d="M425.932 184.769H247.932V491.769H425.932V184.769Z" fill="#F0F0F0"/>
<path d="M658.932 184.769H440.932V316.769H658.932V184.769Z" fill="#F4F4F4"/>
<path d="M891.932 184.769H672.932V316.769H891.932V184.769Z" fill="#F4F4F4"/>
<path d="M891.932 327.769H440.932V491.769H891.932V327.769Z" fill="#F4F4F4"/>
<path d="M336.932 352.769C376.144 352.769 407.932 320.981 407.932 281.769C407.932 242.556 376.144 210.769 336.932 210.769C297.719 210.769 265.932 242.556 265.932 281.769C265.932 320.981 297.719 352.769 336.932 352.769Z" fill="white"/>
<path d="M392.932 248.19C401.684 263.35 404.056 281.365 399.525 298.272C394.995 315.18 383.933 329.596 368.774 338.348C353.615 347.1 335.6 349.472 318.692 344.942C301.784 340.411 287.368 329.35 278.616 314.19L392.932 248.19Z" fill="#E6C343"/>
<path d="M279.932 314.347C271.179 299.188 268.808 281.172 273.338 264.265C277.869 247.357 288.93 232.941 304.089 224.189C319.248 215.437 337.264 213.065 354.171 217.596C371.079 222.126 385.495 233.188 394.247 248.347L279.932 314.347Z" fill="#C76765"/>
<path d="M336.932 215.769C354.436 215.769 371.223 222.722 383.601 235.1C395.978 247.477 402.932 264.264 402.932 281.769C402.932 299.273 395.978 316.06 383.601 328.438C371.223 340.815 354.436 347.769 336.932 347.769V215.769Z" fill="#4192DF"/>
<path d="M303.547 375.511H270.932C268.17 375.511 265.932 377.749 265.932 380.511V386.832C265.932 389.593 268.17 391.832 270.932 391.832H303.547C306.308 391.832 308.547 389.593 308.547 386.832V380.511C308.547 377.749 306.308 375.511 303.547 375.511Z" fill="#1A237E" fill-opacity="0.1"/>
<path d="M329.973 375.511H320.932C318.17 375.511 315.932 377.749 315.932 380.511V386.832C315.932 389.593 318.17 391.832 320.932 391.832H329.973C332.734 391.832 334.973 389.593 334.973 386.832V380.511C334.973 377.749 332.734 375.511 329.973 375.511Z" fill="#1A237E" fill-opacity="0.1"/>
<path d="M407.39 375.511H345.932C343.17 375.511 340.932 377.749 340.932 380.511V386.832C340.932 389.593 343.17 391.832 345.932 391.832H407.39C410.151 391.832 412.39 389.593 412.39 386.832V380.511C412.39 377.749 410.151 375.511 407.39 375.511Z" fill="#1A237E" fill-opacity="0.1"/>
<path d="M279.973 396.511H270.932C268.17 396.511 265.932 398.749 265.932 401.511V407.832C265.932 410.593 268.17 412.832 270.932 412.832H279.973C282.734 412.832 284.973 410.593 284.973 407.832V401.511C284.973 398.749 282.734 396.511 279.973 396.511Z" fill="#1A237E" fill-opacity="0.1"/>
<path d="M347.681 396.511H296.932C294.17 396.511 291.932 398.749 291.932 401.511V407.832C291.932 410.593 294.17 412.832 296.932 412.832H347.681C350.442 412.832 352.681 410.593 352.681 407.832V401.511C352.681 398.749 350.442 396.511 347.681 396.511Z" fill="#1A237E" fill-opacity="0.1"/>
<path d="M407.389 396.511H364.64C361.878 396.511 359.64 398.749 359.64 401.511V407.832C359.64 410.593 361.878 412.832 364.64 412.832H407.389C410.15 412.832 412.389 410.593 412.389 407.832V401.511C412.389 398.749 410.15 396.511 407.389 396.511Z" fill="#1A237E" fill-opacity="0.1"/>
<path d="M407.39 417.511H345.932C343.17 417.511 340.932 419.749 340.932 422.511V428.832C340.932 431.593 343.17 433.832 345.932 433.832H407.39C410.151 433.832 412.39 431.593 412.39 428.832V422.511C412.39 419.749 410.151 417.511 407.39 417.511Z" fill="#1A237E" fill-opacity="0.1"/>
<path d="M322.411 438.511H271.662C268.9 438.511 266.662 440.749 266.662 443.511V449.832C266.662 452.593 268.9 454.832 271.662 454.832H322.411C325.172 454.832 327.411 452.593 327.411 449.832V443.511C327.411 440.749 325.172 438.511 322.411 438.511Z" fill="#1A237E" fill-opacity="0.1"/>
<path d="M407.389 438.511H364.64C361.878 438.511 359.64 440.749 359.64 443.511V449.832C359.64 452.593 361.878 454.832 364.64 454.832H407.389C410.15 454.832 412.389 452.593 412.389 449.832V443.511C412.389 440.749 410.15 438.511 407.389 438.511Z" fill="#1A237E" fill-opacity="0.1"/>
<path d="M331.932 417.511H322.891C320.129 417.511 317.891 419.749 317.891 422.511V428.832C317.891 431.593 320.129 433.832 322.891 433.832H331.932C334.693 433.832 336.932 431.593 336.932 428.832V422.511C336.932 419.749 334.693 417.511 331.932 417.511Z" fill="#1A237E" fill-opacity="0.1"/>
<path d="M308.891 417.511H270.932C268.17 417.511 265.932 419.749 265.932 422.511V428.832C265.932 431.593 268.17 433.832 270.932 433.832H308.891C311.652 433.832 313.891 431.593 313.891 428.832V422.511C313.891 419.749 311.652 417.511 308.891 417.511Z" fill="#1A237E" fill-opacity="0.1"/>
<path d="M347.681 438.511H338.64C335.878 438.511 333.64 440.749 333.64 443.511V449.832C333.64 452.593 335.878 454.832 338.64 454.832H347.681C350.442 454.832 352.681 452.593 352.681 449.832V443.511C352.681 440.749 350.442 438.511 347.681 438.511Z" fill="#1A237E" fill-opacity="0.1"/>
<path d="M461.932 412.769H448.932V480.769H461.932V412.769Z" fill="#4192DF"/>
<path d="M484.932 375.769H471.932V480.769H484.932V375.769Z" fill="#4192DF"/>
<path d="M507.932 388.769H494.932V480.769H507.932V388.769Z" fill="#4192DF"/>
<path d="M531.932 402.769H518.932V480.769H531.932V402.769Z" fill="#4192DF"/>
<path d="M550.932 392.769H537.932V480.769H550.932V392.769Z" fill="#4192DF"/>
<path d="M572.932 412.769H559.932V480.769H572.932V412.769Z" fill="#4192DF"/>
<path d="M595.932 375.769H582.932V480.769H595.932V375.769Z" fill="#4192DF"/>
<path d="M618.932 388.769H605.932V480.769H618.932V388.769Z" fill="#4192DF"/>
<path d="M642.932 402.769H629.932V480.769H642.932V402.769Z" fill="#4192DF"/>
<path d="M661.932 392.769H648.932V480.769H661.932V392.769Z" fill="#4192DF"/>
<path d="M683.932 412.769H670.932V480.769H683.932V412.769Z" fill="#4192DF"/>
<path d="M706.932 375.769H693.932V480.769H706.932V375.769Z" fill="#4192DF"/>
<path d="M729.932 388.769H716.932V480.769H729.932V388.769Z" fill="#4192DF"/>
<path d="M753.932 402.769H740.932V480.769H753.932V402.769Z" fill="#4192DF"/>
<path d="M772.932 392.769H759.932V480.769H772.932V392.769Z" fill="#4192DF"/>
<path d="M794.932 412.769H781.932V480.769H794.932V412.769Z" fill="#4192DF"/>
<path d="M817.932 375.769H804.932V480.769H817.932V375.769Z" fill="#4192DF"/>
<path d="M840.932 388.769H827.932V480.769H840.932V388.769Z" fill="#4192DF"/>
<path d="M864.932 402.769H851.932V480.769H864.932V402.769Z" fill="#4192DF"/>
<path d="M883.932 392.769H870.932V480.769H883.932V392.769Z" fill="#4192DF"/>
<path d="M445.932 297.653L490.511 260.709L530.611 280.552L584.245 237.213L617.624 270.744L652.712 280.552" stroke="#E6C343" stroke-width="3" stroke-linecap="round"/>
<path d="M734.649 210.769H687.932C685.17 210.769 682.932 213.007 682.932 215.769V222.09C682.932 224.851 685.17 227.09 687.932 227.09H734.649C737.41 227.09 739.649 224.851 739.649 222.09V215.769C739.649 213.007 737.41 210.769 734.649 210.769Z" fill="#1A237E" fill-opacity="0.1"/>
<path d="M769.819 210.769H754.477C751.715 210.769 749.477 213.007 749.477 215.769V222.09C749.477 224.851 751.715 227.09 754.477 227.09H769.819C772.58 227.09 774.819 224.851 774.819 222.09V215.769C774.819 213.007 772.58 210.769 769.819 210.769Z" fill="#1A237E" fill-opacity="0.1"/>
<path d="M872.854 210.769H787.75C784.988 210.769 782.75 213.007 782.75 215.769V222.09C782.75 224.851 784.988 227.09 787.75 227.09H872.854C875.615 227.09 877.854 224.851 877.854 222.09V215.769C877.854 213.007 875.615 210.769 872.854 210.769Z" fill="#1A237E" fill-opacity="0.1"/>
<path d="M703.274 231.769H687.932C685.17 231.769 682.932 234.007 682.932 236.769V243.09C682.932 245.851 685.17 248.09 687.932 248.09H703.274C706.035 248.09 708.274 245.851 708.274 243.09V236.769C708.274 234.007 706.035 231.769 703.274 231.769Z" fill="#1A237E" fill-opacity="0.1"/>
<path d="M793.388 231.769H722.536C719.774 231.769 717.536 234.007 717.536 236.769V243.09C717.536 245.851 719.774 248.09 722.536 248.09H793.388C796.149 248.09 798.388 245.851 798.388 243.09V236.769C798.388 234.007 796.149 231.769 793.388 231.769Z" fill="#1A237E" fill-opacity="0.1"/>
<path d="M872.854 231.769H812.649C809.887 231.769 807.649 234.007 807.649 236.769V243.09C807.649 245.851 809.887 248.09 812.649 248.09H872.854C875.615 248.09 877.854 245.851 877.854 243.09V236.769C877.854 234.007 875.615 231.769 872.854 231.769Z" fill="#1A237E" fill-opacity="0.1"/>
<path d="M734.649 257.769H687.932C685.17 257.769 682.932 260.007 682.932 262.769V269.09C682.932 271.851 685.17 274.09 687.932 274.09H734.649C737.41 274.09 739.649 271.851 739.649 269.09V262.769C739.649 260.007 737.41 257.769 734.649 257.769Z" fill="#1A237E" fill-opacity="0.1"/>
<path d="M769.819 257.769H754.477C751.715 257.769 749.477 260.007 749.477 262.769V269.09C749.477 271.851 751.715 274.09 754.477 274.09H769.819C772.58 274.09 774.819 271.851 774.819 269.09V262.769C774.819 260.007 772.58 257.769 769.819 257.769Z" fill="#1A237E" fill-opacity="0.1"/>
<path d="M872.854 257.769H787.75C784.988 257.769 782.75 260.007 782.75 262.769V269.09C782.75 271.851 784.988 274.09 787.75 274.09H872.854C875.615 274.09 877.854 271.851 877.854 269.09V262.769C877.854 260.007 875.615 257.769 872.854 257.769Z" fill="#1A237E" fill-opacity="0.1"/>
<path d="M703.274 278.769H687.932C685.17 278.769 682.932 281.007 682.932 283.769V290.09C682.932 292.851 685.17 295.09 687.932 295.09H703.274C706.035 295.09 708.274 292.851 708.274 290.09V283.769C708.274 281.007 706.035 278.769 703.274 278.769Z" fill="#1A237E" fill-opacity="0.1"/>
<path d="M793.388 278.769H722.536C719.774 278.769 717.536 281.007 717.536 283.769V290.09C717.536 292.851 719.774 295.09 722.536 295.09H793.388C796.149 295.09 798.388 292.851 798.388 290.09V283.769C798.388 281.007 796.149 278.769 793.388 278.769Z" fill="#1A237E" fill-opacity="0.1"/>
<path d="M872.854 278.769H812.649C809.887 278.769 807.649 281.007 807.649 283.769V290.09C807.649 292.851 809.887 295.09 812.649 295.09H872.854C875.615 295.09 877.854 292.851 877.854 290.09V283.769C877.854 281.007 875.615 278.769 872.854 278.769Z" fill="#1A237E" fill-opacity="0.1"/>
<path d="M445.932 297.653L490.511 249.408H529.135L584.247 218.726L617.626 262.513L652.714 275.32" stroke="#337BBC" stroke-width="3" stroke-linecap="round"/>
<path d="M445.932 297.653L490.511 242.396L530.611 272.073L584.245 207.256L617.624 257.405L652.712 272.073" stroke="#E47D54" stroke-width="3" stroke-linecap="round"/>
</g>
<defs>
<clipPath id="clip0_203_367">
<rect width="1073" height="722" fill="white"/>
</clipPath>
</defs>
</svg>
