<svg xmlns="http://www.w3.org/2000/svg" width="184.465" height="147.572" viewBox="0 0 184.465 147.572">
  <path id="Icon_awesome-user-lock" data-name="Icon awesome-user-lock" d="M64.563,73.786A36.893,36.893,0,1,0,27.67,36.893,36.893,36.893,0,0,0,64.563,73.786Zm27.67,18.446a18.182,18.182,0,0,1,2.335-8.791,39.445,39.445,0,0,0-4.179-.432H85.574a50.174,50.174,0,0,1-42.023,0H38.738A38.744,38.744,0,0,0,0,121.738v12a13.835,13.835,0,0,0,13.835,13.835H94.8a18.314,18.314,0,0,1-2.565-9.223Zm83.009-9.223h-9.223V59.951a23.058,23.058,0,1,0-46.116,0V83.009h-9.223a9.223,9.223,0,0,0-9.223,9.223v46.116a9.223,9.223,0,0,0,9.223,9.223h64.563a9.223,9.223,0,0,0,9.223-9.223V92.232A9.223,9.223,0,0,0,175.241,83.009Zm-32.281,41.5a9.223,9.223,0,1,1,9.223-9.223A9.223,9.223,0,0,1,142.96,124.514Zm9.223-41.5H133.737V59.951a9.223,9.223,0,1,1,18.446,0Z" fill="#c76765" opacity="0.1"/>
</svg>
