<svg xmlns="http://www.w3.org/2000/svg" width="51.5" height="51.5" viewBox="0 0 51.5 51.5">
  <path id="Icon_awesome-facebook-square" data-name="Icon awesome-facebook-square" d="M45.982,2.25H5.518A5.518,5.518,0,0,0,0,7.768V48.232A5.518,5.518,0,0,0,5.518,53.75H21.3V36.241H14.053V28H21.3V21.719c0-7.144,4.253-11.091,10.768-11.091a43.874,43.874,0,0,1,6.382.556V18.2H34.851c-3.542,0-4.646,2.2-4.646,4.452V28h7.907l-1.265,8.241H30.2V53.75H45.982A5.518,5.518,0,0,0,51.5,48.232V7.768A5.518,5.518,0,0,0,45.982,2.25Z" transform="translate(0 -2.25)" fill="#fff"/>
</svg>
