<svg xmlns="http://www.w3.org/2000/svg" width="16.892" height="11.694" viewBox="0 0 16.892 11.694">
  <g id="Icon_ionic-ios-mail" data-name="Icon ionic-ios-mail" transform="translate(-3.375 -7.875)" opacity="0.8">
    <path id="Path_468" data-name="Path 468" d="M20.129,10.339l-4.369,4.45a.079.079,0,0,0,0,.114l3.058,3.257a.527.527,0,0,1,0,.747.529.529,0,0,1-.747,0l-3.045-3.244a.083.083,0,0,0-.118,0l-.743.755a3.269,3.269,0,0,1-2.331.983,3.335,3.335,0,0,1-2.379-1.011l-.715-.727a.083.083,0,0,0-.118,0L5.576,18.906a.529.529,0,0,1-.747,0,.527.527,0,0,1,0-.747L7.886,14.9a.086.086,0,0,0,0-.114l-4.373-4.45a.08.08,0,0,0-.138.057v8.9a1.3,1.3,0,0,0,1.3,1.3H18.967a1.3,1.3,0,0,0,1.3-1.3V10.4A.081.081,0,0,0,20.129,10.339Z" transform="translate(0 -1.03)" fill="#fff"/>
    <path id="Path_469" data-name="Path 469" d="M12.18,15.31a2.208,2.208,0,0,0,1.588-.666l6.371-6.485a1.276,1.276,0,0,0-.8-.284H5.03a1.268,1.268,0,0,0-.8.284L10.6,14.644A2.208,2.208,0,0,0,12.18,15.31Z" transform="translate(-0.359 0)" fill="#fff"/>
  </g>
</svg>
