<svg xmlns="http://www.w3.org/2000/svg" width="20.711" height="16.105" viewBox="0 0 20.711 16.105">
  <path id="Icon_awesome-home" data-name="Icon awesome-home" d="M10.08,6.432l-6.629,5.46v5.892a.575.575,0,0,0,.575.575l4.029-.01a.575.575,0,0,0,.572-.575V14.332a.575.575,0,0,1,.575-.575h2.3a.575.575,0,0,1,.575.575v3.439a.575.575,0,0,0,.575.577l4.027.011a.575.575,0,0,0,.575-.575v-5.9L10.63,6.432A.438.438,0,0,0,10.08,6.432ZM20.55,10.142,17.545,7.665V2.685a.431.431,0,0,0-.431-.431H15.1a.431.431,0,0,0-.431.431V5.3L11.45,2.647a1.726,1.726,0,0,0-2.193,0l-9.1,7.5A.431.431,0,0,0,.1,10.75l.917,1.115a.431.431,0,0,0,.608.059L10.08,4.958a.438.438,0,0,1,.55,0l8.457,6.966a.431.431,0,0,0,.608-.058l.917-1.115a.431.431,0,0,0-.061-.609Z" transform="translate(0.001 -2.254)" fill="#fff"/>
</svg>
