<svg xmlns="http://www.w3.org/2000/svg" width="24.781" height="16.105" viewBox="0 0 24.781 16.105">
  <g id="Icon_ionic-ios-people" data-name="Icon ionic-ios-people" transform="translate(-2.215 -7.748)" opacity="0.8">
    <path id="Path_470" data-name="Path 470" d="M21.029,20.139c-.618-.221-1.628-.232-2.075-.4a2.932,2.932,0,0,1-.96-.447,5.934,5.934,0,0,1-.16-1.573,2.541,2.541,0,0,0,.546-.773,8.588,8.588,0,0,0,.265-1.518s.364.155.508-.574c.121-.629.353-.96.293-1.424s-.32-.353-.32-.353a4.133,4.133,0,0,0,.32-2.064A3.3,3.3,0,0,0,15.88,7.748a3.314,3.314,0,0,0-3.571,3.262,4.194,4.194,0,0,0,.315,2.064s-.259-.11-.32.353.166.795.293,1.424c.144.734.508.574.508.574a8.67,8.67,0,0,0,.265,1.518,2.541,2.541,0,0,0,.546.773,5.934,5.934,0,0,1-.16,1.573,2.822,2.822,0,0,1-.96.442c-.442.171-1.452.193-2.075.414a3.9,3.9,0,0,0-2.528,3.709h15.36A3.887,3.887,0,0,0,21.029,20.139Z" transform="translate(-1.285)" fill="#fff"/>
    <path id="Path_471" data-name="Path 471" d="M8.2,18.2a3.747,3.747,0,0,0,1.843-.513c-.855-1.3-.392-2.809-.568-4.222A2.329,2.329,0,0,0,6.9,11.208H6.879A2.336,2.336,0,0,0,4.323,13.46c-.177,1.407.315,3.091-.563,4.222a3.468,3.468,0,0,0,1.849.458h0a2.8,2.8,0,0,1-.055.927,1.394,1.394,0,0,1-.662.3,12.806,12.806,0,0,0-1.429.4,2.324,2.324,0,0,0-1.247,2.053H6.647a3.965,3.965,0,0,1,1.766-1.645,3.706,3.706,0,0,1,1.363-.287s.21-.331-.48-.458a4.7,4.7,0,0,1-1.06-.37C8.131,18.94,8.2,18.2,8.2,18.2Z" transform="translate(0 -0.744)" fill="#fff"/>
    <path id="Path_472" data-name="Path 472" d="M25.651,18.2a3.747,3.747,0,0,1-1.843-.513c.855-1.3.392-2.809.568-4.222a2.329,2.329,0,0,1,2.577-2.252h.022a2.336,2.336,0,0,1,2.555,2.252c.177,1.407-.315,3.091.563,4.222a3.468,3.468,0,0,1-1.849.458h0a2.8,2.8,0,0,0,.055.927,1.394,1.394,0,0,0,.662.3,12.806,12.806,0,0,1,1.429.4,2.324,2.324,0,0,1,1.247,2.053H27.208a3.965,3.965,0,0,0-1.766-1.645,3.706,3.706,0,0,0-1.363-.287s-.21-.331.48-.458a4.7,4.7,0,0,0,1.06-.37C25.723,18.94,25.651,18.2,25.651,18.2Z" transform="translate(-4.643 -0.744)" fill="#fff"/>
  </g>
</svg>
