<svg xmlns="http://www.w3.org/2000/svg" width="61.723" height="72.01" viewBox="0 0 61.723 72.01">
  <path id="Icon_metro-file-archive" data-name="Icon metro-file-archive" d="M28.288,17.634V12.491H23.145v5.144Zm5.144,5.143V17.634H28.288v5.144Zm-5.144,5.144V22.778H23.145v5.144Zm5.144,5.144V27.921H28.288v5.144ZM61.561,17.473a9.35,9.35,0,0,1,1.929,3.054,9.274,9.274,0,0,1,.8,3.536V70.356a3.842,3.842,0,0,1-3.858,3.858H6.428A3.72,3.72,0,0,1,3.7,73.088a3.72,3.72,0,0,1-1.125-2.733V6.061A3.72,3.72,0,0,1,3.7,3.329,3.72,3.72,0,0,1,6.428,2.2h36a9.276,9.276,0,0,1,3.536.8,9.35,9.35,0,0,1,3.054,1.929Zm-17.842-9.8V22.778H58.828a4.39,4.39,0,0,0-.884-1.648L45.367,8.552a4.389,4.389,0,0,0-1.648-.884ZM59.15,69.07V27.921H42.433a3.842,3.842,0,0,1-3.858-3.858V7.347H33.432v5.144H28.288V7.347H7.714V69.07H59.15ZM33.955,40.1l4.3,14.024a7.347,7.347,0,0,1,.321,2.09,6.655,6.655,0,0,1-2.913,5.525,11.932,11.932,0,0,1-7.374,2.19,11.93,11.93,0,0,1-7.374-2.19A6.655,6.655,0,0,1,18,56.211a7.347,7.347,0,0,1,.321-2.09q.844-2.532,4.822-15.913V33.065h5.144v5.144h3.175a2.51,2.51,0,0,1,1.567.522,2.559,2.559,0,0,1,.924,1.366ZM28.289,58.783a7.97,7.97,0,0,0,3.637-.763q1.507-.763,1.507-1.808T31.925,54.4a7.971,7.971,0,0,0-3.637-.763,7.971,7.971,0,0,0-3.637.763q-1.507.763-1.507,1.808t1.507,1.808A7.969,7.969,0,0,0,28.289,58.783Z" transform="translate(-2.571 -2.204)" fill="#ff9800"/>
</svg>
