<svg xmlns="http://www.w3.org/2000/svg" width="51.5" height="51.5" viewBox="0 0 51.5 51.5">
  <path id="Icon_awesome-linkedin" data-name="Icon awesome-linkedin" d="M47.821,2.25H3.667A3.694,3.694,0,0,0,0,5.963V50.037A3.694,3.694,0,0,0,3.667,53.75H47.821A3.7,3.7,0,0,0,51.5,50.037V5.963A3.7,3.7,0,0,0,47.821,2.25ZM15.565,46.393H7.932V21.815h7.645V46.393ZM11.748,18.459a4.426,4.426,0,1,1,4.426-4.426,4.428,4.428,0,0,1-4.426,4.426ZM44.177,46.393H36.544V34.438c0-2.851-.057-6.518-3.966-6.518-3.977,0-4.587,3.1-4.587,6.311V46.393H20.359V21.815h7.323v3.357h.1a8.04,8.04,0,0,1,7.231-3.966c7.725,0,9.162,5.093,9.162,11.714Z" transform="translate(0 -2.25)" fill="#fff"/>
</svg>
