<svg xmlns="http://www.w3.org/2000/svg" width="97.294" height="66.383" viewBox="0 0 97.294 66.383">
  <path id="Icon_material-multiline-chart" data-name="Icon material-multiline-chart" d="M96.048,16.433l-6.56-6.56L76.228,24.807A50.079,50.079,0,0,0,38.4,7.5C24.959,7.5,12.63,12.9,3,21.457l6.606,6.606A43.678,43.678,0,0,1,38.4,16.8c12.748,0,23.681,5.862,31.5,15.074L56.5,46.952l-18.61-18.61L3,63.282l6.979,6.979L37.893,42.3,56.5,60.909,75.345,39.741a57.092,57.092,0,0,1,6.7,21.168H91.4A65.8,65.8,0,0,0,81.9,32.344Z" transform="translate(-0.814 -6)" fill="#ff9800" stroke="#fff" stroke-width="3"/>
</svg>
