<svg xmlns="http://www.w3.org/2000/svg" width="17.36" height="14.105" viewBox="0 0 17.36 14.105">
  <path id="Icon_awesome-list" data-name="Icon awesome-list" d="M2.713,14.225H.543A.543.543,0,0,0,0,14.768v2.17a.543.543,0,0,0,.543.543h2.17a.543.543,0,0,0,.543-.543v-2.17A.543.543,0,0,0,2.713,14.225Zm0-10.85H.543A.543.543,0,0,0,0,3.918v2.17a.543.543,0,0,0,.543.543h2.17a.543.543,0,0,0,.543-.543V3.918A.543.543,0,0,0,2.713,3.375Zm0,5.425H.543A.543.543,0,0,0,0,9.343v2.17a.543.543,0,0,0,.543.543h2.17a.543.543,0,0,0,.543-.543V9.343A.543.543,0,0,0,2.713,8.8Zm14.105,5.968H5.968a.543.543,0,0,0-.543.543V16.4a.543.543,0,0,0,.543.543h10.85a.543.543,0,0,0,.543-.543V15.31A.543.543,0,0,0,16.818,14.768Zm0-10.85H5.968a.543.543,0,0,0-.543.543V5.545a.543.543,0,0,0,.543.543h10.85a.543.543,0,0,0,.543-.543V4.46A.543.543,0,0,0,16.818,3.918Zm0,5.425H5.968a.543.543,0,0,0-.543.543V10.97a.543.543,0,0,0,.543.543h10.85a.543.543,0,0,0,.543-.543V9.885A.543.543,0,0,0,16.818,9.343Z" transform="translate(0 -3.375)" fill="#fff" opacity="0.8"/>
</svg>
