<svg xmlns="http://www.w3.org/2000/svg" width="63.458" height="74.996" viewBox="0 0 63.458 74.996">
  <path id="Icon_ionic-md-notifications-outline" data-name="Icon ionic-md-notifications-outline" d="M37.534,16.44a26.062,26.062,0,0,1,4.311.807,18.372,18.372,0,0,1,14,18V58.254l1.68,1.688,1.4,1.41H15.775l1.4-1.41,1.68-1.688V35.248a18.372,18.372,0,0,1,14-18,31.914,31.914,0,0,1,4.311-.807m.18-13.065A5.511,5.511,0,0,0,31.755,9v2.625A24.3,24.3,0,0,0,13.09,35.248V55.872l-7.465,7.5v3.75H69.083v-3.75l-7.465-7.5V35.248A24.3,24.3,0,0,0,42.953,11.624V9a5.511,5.511,0,0,0-5.6-5.625Zm7.465,67.5H29.888a7.466,7.466,0,1,0,14.931,0Z" transform="translate(-5.625 -3.375)" fill="#ff9800"/>
</svg>
