<svg xmlns="http://www.w3.org/2000/svg" width="51.5" height="51.5" viewBox="0 0 51.5 51.5">
  <path id="Icon_awesome-twitter-square" data-name="Icon awesome-twitter-square" d="M45.982,2.25H5.518A5.519,5.519,0,0,0,0,7.768V48.232A5.519,5.519,0,0,0,5.518,53.75H45.982A5.519,5.519,0,0,0,51.5,48.232V7.768A5.519,5.519,0,0,0,45.982,2.25ZM40.361,20.5c.023.322.023.655.023.977,0,9.967-7.587,21.451-21.451,21.451a21.352,21.352,0,0,1-11.576-3.38,15.883,15.883,0,0,0,1.816.092,15.116,15.116,0,0,0,9.357-3.219,7.549,7.549,0,0,1-7.047-5.23,8.126,8.126,0,0,0,3.4-.138,7.54,7.54,0,0,1-6.035-7.4v-.092a7.534,7.534,0,0,0,3.4.954A7.523,7.523,0,0,1,8.9,18.24a7.445,7.445,0,0,1,1.023-3.805,21.407,21.407,0,0,0,15.542,7.886,7.555,7.555,0,0,1,12.864-6.886,14.774,14.774,0,0,0,4.782-1.816,7.52,7.52,0,0,1-3.311,4.15A15,15,0,0,0,44.143,16.6,15.869,15.869,0,0,1,40.361,20.5Z" transform="translate(0 -2.25)" fill="#fff"/>
</svg>
