<svg xmlns="http://www.w3.org/2000/svg" width="50.445" height="80.005" viewBox="0 0 50.445 80.005">
  <path id="Icon_simple-openaccess" data-name="Icon simple-openaccess" d="M55.112,44.956a25.2,25.2,0,0,0-1.8-3.477V21.386A21.4,21.4,0,0,0,31.926,0h-.007A21.384,21.384,0,0,0,10.533,21.386v2.923H19.1V21.386a12.823,12.823,0,0,1,25.646,0V33.079A25.213,25.213,0,1,0,55.112,44.962ZM31.872,71.432A16.656,16.656,0,1,1,48.529,54.775,16.677,16.677,0,0,1,31.872,71.432Zm7.15-16.58a7.066,7.066,0,1,1-7.066-7.067,7.066,7.066,0,0,1,7.066,7.067Z" transform="translate(-6.65)" fill="#ff9800"/>
</svg>
