<svg xmlns="http://www.w3.org/2000/svg" width="127.848" height="128.015" viewBox="0 0 127.848 128.015">
  <path id="Icon_material-donut-large" data-name="Icon material-donut-large" d="M59.115,22.2V3C27.94,6.118,3,32.99,3,65.35s24.94,59.233,56.115,62.35V108.5C40.41,105.5,21.705,87.3,21.705,65.35S40.41,25.2,59.115,22.2Zm49.693,36.911H127.7C124.77,27.94,102.76,5.93,71.585,3V22.2C90.29,24.885,106.127,40.41,108.808,59.115ZM71.585,108.5v19.2c31.175-2.93,53.185-24.94,56.115-56.115H108.808C106.127,90.29,90.29,105.815,71.585,108.5Z" transform="translate(-1.5 -1.343)" fill="#337bbc" stroke="#f2f2f2" stroke-width="3" opacity="0.1"/>
</svg>
