<svg id="Component_19_1" data-name="Component 19 – 1" xmlns="http://www.w3.org/2000/svg" xmlns:xlink="http://www.w3.org/1999/xlink" width="180.934" height="26.261" viewBox="0 0 180.934 26.261">
  <defs>
    <clipPath id="clip-path">
      <rect id="Rectangle_547" data-name="Rectangle 547" width="180.934" height="26.261" fill="#16a5f1"/>
    </clipPath>
  </defs>
  <g id="Group_23" data-name="Group 23" clip-path="url(#clip-path)">
    <path id="Path_24" data-name="Path 24" d="M143.236,22.143h4.158v1.965a6.662,6.662,0,0,1,5.239-2.292c4.519,0,7.4,3.8,7.4,8.48,0,4.748-2.947,8.547-7.466,8.547a6.362,6.362,0,0,1-4.944-2.194V43.23h-4.388Zm12.312,8.186c0-2.587-1.67-4.453-4.06-4.453-2.227,0-3.9,1.833-3.9,4.453,0,2.587,1.637,4.453,3.9,4.453,2.39,0,4.06-1.866,4.06-4.453" transform="translate(-111.417 -16.97)" fill="#fff"/>
    <path id="Path_25" data-name="Path 25" d="M229.465,30.33c0-4.715,2.881-8.514,7.4-8.514a6.4,6.4,0,0,1,5.108,2.325v-2h4.29V38.516h-4.29V36.551a6.323,6.323,0,0,1-5.108,2.292c-4.519,0-7.4-3.8-7.4-8.513m12.41,0c0-2.554-1.637-4.453-3.9-4.453a4.142,4.142,0,0,0-4.06,4.453c0,2.587,1.7,4.453,4.06,4.453,2.259,0,3.9-1.834,3.9-4.453" transform="translate(-178.491 -16.97)" fill="#fff"/>
    <path id="Path_26" data-name="Path 26" d="M320.116,22.142h4.322v3.144c.458-1.342,2.128-3.471,5.73-3.471V26.6c-3.8,0-5.665,1.736-5.665,5.632v6.287h-4.388Z" transform="translate(-249.005 -16.969)" fill="#fff"/>
    <path id="Path_27" data-name="Path 27" d="M372.3,36.616l1.572-3.373a7.929,7.929,0,0,0,5.108,1.735c1.015,0,2.685-.393,2.685-1.375s-1.408-1.212-2.816-1.6c-3.241-.851-5.894-1.932-5.894-5.075,0-3.34,3.275-5.108,6.353-5.108a11.17,11.17,0,0,1,6.091,1.637l-1.474,3.274a10.271,10.271,0,0,0-4.551-1.146c-1.015,0-1.964.458-1.964,1.146,0,.917,1.375,1.212,2.881,1.539,2.784.655,5.829,1.866,5.829,5.207,0,4.027-4.093,5.37-7.139,5.37a9.955,9.955,0,0,1-6.68-2.226" transform="translate(-289.593 -16.969)" fill="#fff"/>
    <path id="Path_28" data-name="Path 28" d="M444.081,30.329a8.407,8.407,0,0,1,8.481-8.514,8.186,8.186,0,0,1,7.957,8.448,14.559,14.559,0,0,1-.1,1.572H448.534a4.331,4.331,0,0,0,4.552,3.34,8.125,8.125,0,0,0,4.42-1.277l1.637,3.144a11.032,11.032,0,0,1-6.09,1.8c-4.781,0-8.972-3.111-8.972-8.513m12.312-1.408a3.955,3.955,0,0,0-3.962-3.438,4.1,4.1,0,0,0-3.962,3.438Z" transform="translate(-345.432 -16.969)" fill="#fff"/>
    <path id="Path_29" data-name="Path 29" d="M528.836,30.33c0-4.715,2.882-8.514,7.4-8.514a6.4,6.4,0,0,1,5.108,2.325v-2h4.289V38.516h-4.289V36.551a6.323,6.323,0,0,1-5.108,2.292c-4.519,0-7.4-3.8-7.4-8.513m12.41,0c0-2.554-1.637-4.453-3.9-4.453a4.142,4.142,0,0,0-4.06,4.453c0,2.587,1.7,4.453,4.06,4.453,2.259,0,3.9-1.834,3.9-4.453" transform="translate(-411.36 -16.97)" fill="#fff"/>
    <path id="Path_30" data-name="Path 30" d="M623.649,19.582v1.965H619.49V0h4.388V7.008a6.444,6.444,0,0,1,4.945-2.161c4.518,0,7.465,3.8,7.465,8.514s-2.881,8.513-7.4,8.513a6.584,6.584,0,0,1-5.239-2.292m8.186-6.221a4.142,4.142,0,0,0-4.06-4.453c-2.259,0-3.9,1.9-3.9,4.453,0,2.619,1.67,4.453,3.9,4.453,2.358,0,4.06-1.866,4.06-4.453" transform="translate(-481.876 -0.001)" fill="#fff"/>
    <rect id="Rectangle_546" data-name="Rectangle 546" width="4.388" height="21.546" transform="translate(157.26)" fill="#fff"/>
    <path id="Path_31" data-name="Path 31" d="M740.5,30.329a8.408,8.408,0,0,1,8.481-8.514,8.185,8.185,0,0,1,7.956,8.448,14.533,14.533,0,0,1-.1,1.572H744.956a4.331,4.331,0,0,0,4.551,3.34,8.127,8.127,0,0,0,4.421-1.277l1.637,3.144a11.034,11.034,0,0,1-6.091,1.8c-4.781,0-8.972-3.111-8.972-8.513m12.312-1.408a3.955,3.955,0,0,0-3.962-3.438,4.1,4.1,0,0,0-3.962,3.438Z" transform="translate(-576.007 -16.969)" fill="#fff"/>
    <path id="Path_32" data-name="Path 32" d="M67.3,60.8l-10.7,10.7a.721.721,0,0,0,.565,1.228,12.36,12.36,0,0,0,11.36-11.36A.721.721,0,0,0,67.3,60.8" transform="translate(-43.866 -47.126)" fill="#fff"/>
    <path id="Path_33" data-name="Path 33" d="M43.786,31.51l-.019-.04a2.123,2.123,0,0,0-3.421-.614L26.665,44.538a2.123,2.123,0,0,0,.614,3.421l.04.019a2.106,2.106,0,0,0,2.378-.43L43.356,33.889a2.105,2.105,0,0,0,.43-2.378" transform="translate(-20.261 -23.521)" fill="#fff"/>
    <path id="Path_34" data-name="Path 34" d="M11.927,5.421a.721.721,0,0,0-.565-1.228A12.36,12.36,0,0,0,0,15.553a.721.721,0,0,0,1.228.565Z" transform="translate(0 -3.26)" fill="#fff"/>
    <path id="Path_35" data-name="Path 35" d="M6.47,63.495,4.9,65.065a2.119,2.119,0,0,0-.418,2.4L4.5,67.5A2.117,2.117,0,0,0,7.91,68.1l1.581-1.581A2.136,2.136,0,0,0,6.47,63.495" transform="translate(-3.329 -48.903)" fill="#fff"/>
    <path id="Path_36" data-name="Path 36" d="M37.267,19.249,44.414,12.1a2.117,2.117,0,0,0-.593-3.411l-.036-.017a2.119,2.119,0,0,0-2.4.418l-7.137,7.137a2.136,2.136,0,0,0,3.021,3.021" transform="translate(-26.151 -6.589)" fill="#ff9800"/>
  </g>
</svg>
