<svg xmlns="http://www.w3.org/2000/svg" width="33.381" height="33.448" viewBox="0 0 33.381 33.448">
  <g id="slack-new-logo" transform="translate(0)">
    <path id="Path_457" data-name="Path 457" d="M12.239,0a3.344,3.344,0,0,0,0,6.688h3.339V3.345A3.344,3.344,0,0,0,12.239,0h0m0,8.919h-8.9a3.345,3.345,0,0,0,0,6.69h8.9a3.345,3.345,0,0,0,0-6.69Z" fill="#1a237e" fill-rule="evenodd"/>
    <path id="Path_458" data-name="Path 458" d="M1320.978,12.263a3.339,3.339,0,1,0-6.677,0v3.345h3.339A3.342,3.342,0,0,0,1320.978,12.263Zm-8.9,0V3.344a3.338,3.338,0,1,0-6.676,0v8.919a3.338,3.338,0,1,0,6.676,0Z" transform="translate(-1287.597 0)" fill="#1a237e" fill-rule="evenodd"/>
    <path id="Path_459" data-name="Path 459" d="M1308.638,1323.51a3.344,3.344,0,0,0,0-6.688H1305.3v3.344A3.343,3.343,0,0,0,1308.638,1323.51Zm0-8.921h8.9a3.345,3.345,0,0,0,0-6.69h-8.9a3.345,3.345,0,0,0,0,6.69Z" transform="translate(-1287.498 -1290.063)" fill="#1a237e" fill-rule="evenodd"/>
    <path id="Path_460" data-name="Path 460" d="M0,1311.344a3.339,3.339,0,1,0,6.677,0V1308H3.339A3.342,3.342,0,0,0,0,1311.344Zm8.9,0v8.919a3.338,3.338,0,1,0,6.676,0v-8.918a3.338,3.338,0,1,0-6.676,0h0" transform="translate(0 -1290.161)" fill="#1a237e" fill-rule="evenodd"/>
  </g>
</svg>
